<?xml version="1.0" encoding="iso-8859-1"?>
<!-- Uploaded to: SVG Repo, www.svgrepo.com, Generator: SVG Repo Mixer Tools -->
<!DOCTYPE svg PUBLIC "-//W3C//DTD SVG 1.1//EN" "http://www.w3.org/Graphics/SVG/1.1/DTD/svg11.dtd">
<svg fill="#000000" height="800px" width="800px" version="1.1" id="Capa_1" xmlns="http://www.w3.org/2000/svg" xmlns:xlink="http://www.w3.org/1999/xlink" 
	 viewBox="0 0 477.778 477.778" xml:space="preserve">
<g>
	<path d="M238.889,0C106.955,0,0,106.955,0,238.889s106.955,238.889,238.889,238.889c131.934,0,238.889-106.955,238.889-238.889
		S370.823,0,238.889,0z M238.889,368.948c-71.823,0-130.051-58.228-130.051-130.059c0-71.831,58.228-130.059,130.051-130.059
		c71.823,0,130.051,58.228,130.051,130.059C368.94,310.72,310.712,368.948,238.889,368.948z"/>
	<path d="M267.07,232.194v-0.957c25.491-12.107,34.093-30.903,34.093-48.423c0-25.809-20.079-50.974-60.221-50.974
		c-36.316,0-64.03,22.295-64.03,55.112c0,17.839,9.876,35.685,32.815,46.518l0.312,0.956c-25.475,10.833-41.09,29.31-41.09,55.43
		c0,30.266,26.128,56.075,69.458,56.075c39.504,0,70.407-24.215,70.407-60.213C308.813,260.547,292.871,242.388,267.07,232.194z
		 M203.352,185.039c0-17.84,12.752-33.128,36.004-33.128c25.165,0,35.04,17.202,35.04,33.765c0,18.804-13.703,31.541-31.541,37.598
		C218.966,216.897,203.352,205.746,203.352,185.039z M239.029,325.54c-26.44,0-42.366-18.484-41.401-39.504
		c0-19.759,13.048-35.685,37.264-42.691c28.042,7.963,45.554,20.07,45.554,45.234C280.446,309.925,264.208,325.54,239.029,325.54z"
		/>
</g>
</svg>