<?xml version="1.0" encoding="iso-8859-1"?>
<!-- Uploaded to: SVG Repo, www.svgrepo.com, Generator: SVG Repo Mixer Tools -->
<svg height="800px" width="800px" version="1.1" id="Layer_1" xmlns="http://www.w3.org/2000/svg" xmlns:xlink="http://www.w3.org/1999/xlink" 
	 viewBox="0 0 503.467 503.467" xml:space="preserve">
<g transform="translate(1 1)">
	<path style="fill:#FFE079;" d="M250.733,3.267C387.267,3.267,498.2,114.2,498.2,250.733S387.267,498.2,250.733,498.2
		S3.267,387.267,3.267,250.733S114.2,3.267,250.733,3.267"/>
	<path style="fill:#AAB1BA;" d="M284.867,88.6c14.507,0,25.6,11.093,25.6,25.6s-11.093,25.6-25.6,25.6
		c-14.507,0-25.6-11.093-25.6-25.6S270.36,88.6,284.867,88.6z M284.867,191c14.507,0,25.6,11.093,25.6,25.6
		c0,14.507-11.093,25.6-25.6,25.6c-14.507,0-25.6-11.093-25.6-25.6C259.267,202.093,270.36,191,284.867,191z M378.733,139.8
		c14.507,0,25.6,11.093,25.6,25.6s-11.093,25.6-25.6,25.6c-14.507,0-25.6-11.093-25.6-25.6S364.227,139.8,378.733,139.8z"/>
</g>
<path style="fill:#51565F;" d="M251.733,503.467C112.64,503.467,0,390.827,0,251.733S112.64,0,251.733,0
	s251.733,112.64,251.733,251.733c0,60.587-22.187,119.467-61.44,164.693c-1.707,1.707-4.267,1.707-5.973,0
	c-1.707-1.707-1.707-4.267,0-5.973c38.4-44.373,59.733-100.693,59.733-159.573c0-133.973-109.227-243.2-243.2-243.2
	c-133.973,0-243.2,109.227-243.2,243.2s109.227,243.2,243.2,243.2c58.88,0,115.2-21.333,159.573-59.733
	c1.707-1.707,4.267-1.707,5.973,0c1.707,1.707,1.707,4.267,0,5.973C371.2,481.28,312.32,503.467,251.733,503.467z M285.867,247.467
	c-16.213,0-29.867-13.653-29.867-29.867s13.653-29.867,29.867-29.867c16.213,0,29.867,13.653,29.867,29.867
	S302.08,247.467,285.867,247.467z M285.867,196.267c-11.947,0-21.333,9.387-21.333,21.333c0,11.947,9.387,21.333,21.333,21.333
	c11.947,0,21.333-9.387,21.333-21.333C307.2,205.653,297.813,196.267,285.867,196.267z M379.733,196.267
	c-16.213,0-29.867-13.653-29.867-29.867s13.653-29.867,29.867-29.867c16.213,0,29.867,13.653,29.867,29.867
	S395.947,196.267,379.733,196.267z M379.733,145.067c-11.947,0-21.333,9.387-21.333,21.333s9.387,21.333,21.333,21.333
	c11.947,0,21.333-9.387,21.333-21.333S391.68,145.067,379.733,145.067z M285.867,145.067c-16.213,0-29.867-13.653-29.867-29.867
	s13.653-29.867,29.867-29.867c16.213,0,29.867,13.653,29.867,29.867S302.08,145.067,285.867,145.067z M285.867,93.867
	c-11.947,0-21.333,9.387-21.333,21.333s9.387,21.333,21.333,21.333c11.947,0,21.333-9.387,21.333-21.333
	S297.813,93.867,285.867,93.867z"/>
</svg>