<?xml version="1.0" encoding="iso-8859-1"?>
<!-- Uploaded to: SVG Repo, www.svgrepo.com, Generator: SVG Repo Mixer Tools -->
<!DOCTYPE svg PUBLIC "-//W3C//DTD SVG 1.1//EN" "http://www.w3.org/Graphics/SVG/1.1/DTD/svg11.dtd">
<svg fill="#000000" height="800px" width="800px" version="1.1" id="Capa_1" xmlns="http://www.w3.org/2000/svg" xmlns:xlink="http://www.w3.org/1999/xlink" 
	 viewBox="0 0 278.491 278.491" xml:space="preserve">
<path d="M247.246,95.5c0,8.284-6.716,15-15,15h-61.333v71c0,3.177-0.495,6.198-1.683,8.938c-0.009,0.026,0.064,0.051,0.055,0.076
	c-0.081,0.229-0.116,0.458-0.209,0.684c-0.091,0.222-0.176,0.436-0.277,0.652c-0.106,0.228-0.198,0.456-0.317,0.679
	c-0.111,0.209-0.231,0.409-0.351,0.612c-0.129,0.218-0.25,0.436-0.391,0.648c-0.142,0.214-0.298,0.417-0.451,0.623
	c-0.138,0.187-0.268,0.376-0.416,0.558c-0.204,0.25-0.424,0.485-0.643,0.721c-0.107,0.116-0.202,0.239-0.314,0.352l-0.06,0.061
	c-0.709,0.83-1.477,1.607-2.298,2.326l-74.694,75.604c-2.935,2.97-6.802,4.458-10.672,4.458c-3.808,0-7.618-1.441-10.541-4.329
	c-5.894-5.822-5.951-15.319-0.129-21.213L119.34,200.5H46.246c-8.284,0-15-6.716-15-15s6.716-15,15-15h79.667v-60H66.246
	c-8.284,0-15-6.716-15-15s6.549-15,14.833-15h-0.166V8.25c0-4.556,3.944-8.25,8.5-8.25s8.5,3.694,8.5,8.25V80.5h132V8.25
	c0-4.556,3.444-8.25,8-8.25s8,3.694,8,8.25V80.5h1.333C240.53,80.5,247.246,87.216,247.246,95.5z M148.996,71
	c13.669,0,24.75-11.081,24.75-24.75s-11.081-24.75-24.75-24.75s-24.75,11.081-24.75,24.75S135.327,71,148.996,71z"/>
</svg>