<?xml version="1.0" encoding="iso-8859-1"?>
<!-- Uploaded to: SVG Repo, www.svgrepo.com, Generator: SVG Repo Mixer Tools -->
<svg height="800px" width="800px" version="1.1" id="Layer_1" xmlns="http://www.w3.org/2000/svg" xmlns:xlink="http://www.w3.org/1999/xlink" 
	 viewBox="0 0 512 512" xml:space="preserve">
<g>
	<circle style="fill:#FAEE1C;" cx="100.174" cy="456.348" r="44.522"/>
	<circle style="fill:#FAEE1C;" cx="256" cy="456.348" r="44.522"/>
	<circle style="fill:#FAEE1C;" cx="411.826" cy="456.348" r="44.522"/>
</g>
<path style="fill:#20B0B7;" d="M55.652,122.435V77.167c0-11.876,9.639-21.515,21.515-21.515h112.05V33.024
	c0-12.088,9.806-21.894,21.894-21.894H256v200.348h132.085c37.699,0,68.263,30.564,68.263,68.263v98.137H77.167
	c-11.876,0-21.515-9.639-21.515-21.515V189.217"/>
<path style="fill:#315C7C;" d="M456.348,345.043v32.835H77.167c-11.876,0-21.515-9.639-21.515-21.515v-11.32H456.348z"/>
<path d="M46.403,162.003c0.401,0.612,0.868,1.18,1.38,1.692c2.07,2.07,4.942,3.261,7.869,3.261c2.927,0,5.799-1.191,7.869-3.261
	c0.512-0.512,0.979-1.08,1.38-1.692c0.401-0.601,0.746-1.247,1.024-1.926c0.278-0.668,0.501-1.369,0.646-2.081
	c0.145-0.712,0.211-1.447,0.211-2.17c0-0.723-0.067-1.458-0.211-2.17c-0.145-0.712-0.367-1.414-0.646-2.081
	c-0.278-0.679-0.623-1.325-1.024-1.926c-0.401-0.612-0.868-1.18-1.38-1.692c-2.07-2.07-4.942-3.261-7.869-3.261
	c-2.927,0-5.799,1.191-7.869,3.261c-0.512,0.512-0.979,1.08-1.38,1.692c-0.401,0.601-0.746,1.247-1.024,1.926
	c-0.278,0.668-0.49,1.369-0.634,2.081c-0.145,0.712-0.223,1.447-0.223,2.17c0,0.723,0.078,1.458,0.223,2.17
	c0.145,0.712,0.356,1.414,0.634,2.081C45.657,160.757,46.002,161.402,46.403,162.003z"/>
<path d="M388.085,200.348H267.13V11.13C267.13,4.983,262.147,0,256,0h-44.889c-18.209,0-33.024,14.815-33.024,33.024v11.498H77.167
	c-18.001,0-32.646,14.644-32.646,32.646v45.267c0,6.147,4.983,11.13,11.13,11.13s11.13-4.983,11.13-11.13V77.167
	c0-5.727,4.659-10.385,10.385-10.385h112.05c6.147,0,11.13-4.983,11.13-11.13V33.024c0-5.935,4.828-10.763,10.763-10.763h33.759
	v66.783h-33.391c-6.147,0-11.13,4.983-11.13,11.13c0,6.147,4.983,11.13,11.13,11.13h33.391v11.13h-33.391
	c-6.147,0-11.13,4.983-11.13,11.13c0,6.147,4.983,11.13,11.13,11.13h33.391v11.13h-33.391c-6.147,0-11.13,4.983-11.13,11.13
	s4.983,11.13,11.13,11.13h33.391v33.391c0,6.147,4.983,11.13,11.13,11.13h132.085c31.504,0,57.133,25.629,57.133,57.133v54.172
	H66.783V189.217c0-6.147-4.983-11.13-11.13-11.13s-11.13,4.983-11.13,11.13v155.826v11.32c0,18.001,14.644,32.646,32.646,32.646
	H121.4l-6.797,13.595c-4.605-1.238-9.439-1.908-14.428-1.908c-30.687,0-55.652,24.966-55.652,55.652S69.487,512,100.174,512
	c26.876,0,49.361-19.15,54.532-44.522h46.761C206.639,492.85,229.123,512,256,512s49.361-19.15,54.532-44.522h46.761
	C362.465,492.85,384.949,512,411.826,512c30.687,0,55.652-24.966,55.652-55.652s-24.966-55.652-55.652-55.652
	c-4.99,0-9.824,0.67-14.428,1.908l-6.797-13.595h65.747c6.147,0,11.13-4.983,11.13-11.13v-32.835v-65.302
	C467.478,235.964,431.862,200.348,388.085,200.348z M124.197,433.191c3.278,3.399,5.845,7.487,7.454,12.026h-13.468L124.197,433.191
	z M100.174,489.739c-18.412,0-33.391-14.979-33.391-33.391s14.979-33.391,33.391-33.391c1.396,0,2.768,0.096,4.119,0.264
	l-14.076,28.15c-1.725,3.45-1.54,7.548,0.488,10.829c2.028,3.282,5.611,5.279,9.469,5.279h31.477
	C127.056,480.433,114.684,489.739,100.174,489.739z M256,489.739c-14.51,0-26.882-9.306-31.477-22.261h62.954
	C282.882,480.433,270.51,489.739,256,489.739z M224.523,445.217c4.595-12.955,16.966-22.261,31.477-22.261
	c14.511,0,26.882,9.306,31.477,22.261H224.523z M393.817,445.217h-13.468c1.609-4.539,4.176-8.627,7.454-12.026L393.817,445.217z
	 M411.826,422.957c18.412,0,33.391,14.979,33.391,33.391s-14.979,33.391-33.391,33.391c-14.51,0-26.882-9.306-31.477-22.261h31.477
	c3.858,0,7.441-1.997,9.468-5.279c2.028-3.281,2.213-7.378,0.487-10.829l-14.076-28.15
	C409.058,423.052,410.43,422.957,411.826,422.957z M377.503,412.59c-10.187,8.007-17.528,19.476-20.208,32.628h-46.761
	c-5.171-25.372-27.656-44.522-54.532-44.522s-49.361,19.15-54.532,44.522h-46.761c-2.68-13.152-10.023-24.621-20.208-32.628
	l11.788-23.581h219.425L377.503,412.59z M445.217,366.748H77.167c-5.727,0-10.385-4.659-10.385-10.385v-0.189h378.435V366.748z"/>
</svg>