<?xml version="1.0" encoding="iso-8859-1"?>
<!-- Uploaded to: SVG Repo, www.svgrepo.com, Generator: SVG Repo Mixer Tools -->
<svg height="800px" width="800px" version="1.1" id="Layer_1" xmlns="http://www.w3.org/2000/svg" xmlns:xlink="http://www.w3.org/1999/xlink" 
	 viewBox="0 0 512 512" xml:space="preserve">
<g>
	<polygon style="fill:#F0C19C;" points="272.999,160.903 273,160.899 273,160.899 	"/>
	<path style="fill:#F0C19C;" d="M244.42,28.925c-13.924,30.921-31.398,76.737-42.971,131.975l0,0l0,0l0,0l0,0l33.579,9.822
		l37.972-9.822l0,0c15.597-65.378,39.588-114.202,49.071-131.975C322.07,28.925,244.42,28.925,244.42,28.925z"/>
	<polygon style="fill:#F0C19C;" points="407.223,160.903 407.224,160.899 407.224,160.899 	"/>
	<path style="fill:#F0C19C;" d="M378.644,28.925c-13.924,30.921-31.398,76.737-42.971,131.975l0,0l0,0l0,0l0,0l33.579,9.822
		l37.972-9.822l0,0c15.597-65.378,39.588-114.202,49.071-131.975C456.295,28.925,378.644,28.925,378.644,28.925z"/>
</g>
<path style="fill:#DBDDF2;" d="M201.449,160.899c-7.468,35.64-12.484,75.19-12.484,117.229h69.72
	c0-42.352,5.952-82.169,14.316-117.229L201.449,160.899L201.449,160.899z"/>
<path style="opacity:0.1;enable-background:new    ;" d="M222.901,160.899c11.573-55.237,29.047-101.053,42.971-131.975H244.42
	c-13.924,30.921-31.398,76.737-42.971,131.975l0,0c-7.468,35.64-12.484,75.19-12.484,117.229h21.452
	C210.417,236.089,215.434,196.539,222.901,160.899L222.901,160.899z"/>
<path style="fill:#E6E9FF;" d="M335.673,160.899c-7.468,35.64-12.484,75.19-12.484,117.229h69.72
	c0-42.352,5.952-82.169,14.316-117.229L335.673,160.899L335.673,160.899z"/>
<path style="opacity:0.1;enable-background:new    ;" d="M400.096,28.925h-21.452c-13.924,30.921-31.398,76.737-42.971,131.975
	c-7.468,35.64-12.484,75.19-12.484,117.229h21.452c0-42.04,5.018-81.59,12.484-117.229
	C368.698,105.662,386.172,59.846,400.096,28.925z"/>
<path style="fill:#565766;" d="M400.506,400.859H111.495c-36.112,0-70.062-14.062-95.597-39.598
	c-10.472-10.472-10.472-27.451,0-37.922c10.473-10.473,27.45-10.473,37.922,0c15.405,15.405,35.887,23.889,57.674,23.889h289.01
	c21.787,0,42.268-8.484,57.674-23.889c10.473-10.473,27.45-10.473,37.922,0c10.472,10.472,10.472,27.451,0,37.922
	C470.567,386.796,436.618,400.859,400.506,400.859z"/>
<g style="opacity:0.1;">
	<path d="M37.351,323.338c2.444-2.444,5.247-4.311,8.236-5.614c-9.812-4.28-21.659-2.413-29.688,5.614
		c-10.472,10.472-10.472,27.451,0,37.922c25.535,25.536,59.485,39.598,95.597,39.598h21.452c-36.112,0-70.062-14.062-95.597-39.598
		C26.879,350.789,26.879,333.81,37.351,323.338z"/>
</g>
<circle style="fill:#626375;" cx="142.153" cy="441.97" r="41.113"/>
<circle style="fill:#E6E9FF;" cx="142.153" cy="441.97" r="16.92"/>
<circle style="fill:#626375;" cx="369.848" cy="441.97" r="41.113"/>
<circle style="fill:#E6E9FF;" cx="369.848" cy="441.97" r="16.92"/>
<path style="fill:#565766;" d="M178.283,278.132c-3.704,0-7.338,0.298-10.884,0.858l-7.238,46.155h85.599l12.904-5.67v-41.343
	L178.283,278.132L178.283,278.132z"/>
<path style="fill:#DBDDF2;" d="M175.974,319.474c0.718-3.409,1.107-6.939,1.107-10.562c0-11.177-3.598-21.509-9.682-29.923
	c-23.413,3.697-42.918,19.127-52.318,40.078l-0.176,0.407c-3.766,8.539-5.873,17.976-5.873,27.908h149.631v-27.908H175.974z"/>
<path style="fill:#626375;" d="M312.528,278.129c-3.704,0-7.338,0.298-10.884,0.858l-7.238,46.155h85.599l12.904-5.67v-41.343
	L312.528,278.129L312.528,278.129z"/>
<path style="fill:#E6E9FF;" d="M310.22,319.472c0.718-3.409,1.107-6.939,1.107-10.562c0-11.177-3.598-21.509-9.682-29.923
	c-23.413,3.697-42.918,19.127-52.318,40.078l-0.176,0.407c-3.766,8.539-5.873,17.976-5.873,27.908h149.631v-27.908L310.22,319.472
	L310.22,319.472z"/>
<path style="fill:#626375;" d="M479.632,323.338c2.444-2.444,5.247-4.311,8.236-5.614c-9.812-4.28-21.659-2.413-29.688,5.614
	c-15.405,15.405-35.888,23.889-57.674,23.889h21.452C443.744,347.227,464.227,338.742,479.632,323.338z"/>
<path d="M512,342.299c0-9.312-3.625-18.066-10.21-24.65c-6.585-6.585-15.338-10.21-24.65-10.21c-9.311,0-18.065,3.625-24.65,10.21
	c-13.781,13.781-32.069,21.407-51.538,21.523v-19.701v-41.343c0-37.328,4.74-76.128,14.087-115.321l0,0l0.106-0.433
	c4.242-17.724,9.439-35.58,15.449-53.071c1.444-4.201-0.793-8.778-4.994-10.221c-4.207-1.447-8.779,0.792-10.222,4.994
	c-5.526,16.086-10.386,32.477-14.466,48.779H345.66c10.984-48.483,26.308-88.818,38.209-115.886h59.266
	c-4.44,8.999-9.794,20.582-15.493,34.493c-1.684,4.111,0.283,8.809,4.394,10.493c4.115,1.685,8.809-0.284,10.494-4.396
	c8.382-20.464,15.971-35.685,20.861-44.849c1.33-2.493,1.254-5.501-0.2-7.926c-1.453-2.423-4.073-3.906-6.899-3.906h-77.652
	c-3.165,0-6.036,1.856-7.336,4.742c-13.234,29.39-31.525,76.431-43.509,133.628c-3.926,18.736-6.934,37.452-9.038,56.04
	c-0.041,0.252-0.07,0.507-0.087,0.766c-2.034,18.172-3.196,36.218-3.465,54.029h-2.68c-4.032,0-8.115,0.322-12.138,0.957
	c-0.005,0.001-0.011,0.003-0.017,0.004c-12.402,1.961-23.874,6.841-33.646,14.027v-6.942c0-37.34,4.743-76.153,14.097-115.363
	c15.362-64.395,38.926-112.403,48.344-130.055c1.33-2.493,1.254-5.501-0.2-7.926c-1.453-2.423-4.073-3.906-6.899-3.906h-77.652
	c-3.165,0-6.036,1.856-7.335,4.741c-11.002,24.431-20.675,50.154-28.749,76.455c-1.303,4.248,1.082,8.747,5.33,10.051
	c4.249,1.304,8.747-1.081,10.051-5.33c7.357-23.965,16.07-47.43,25.927-69.829h59.272c-11.179,22.675-29.19,63.788-42.231,115.886
	h-55.248c1.077-4.751,2.218-9.527,3.412-14.28c1.082-4.31-1.533-8.681-5.841-9.763c-4.309-1.083-8.68,1.533-9.763,5.84
	c-2.063,8.209-3.97,16.484-5.67,24.596c-3.926,18.736-6.934,37.452-9.038,56.04c-0.041,0.252-0.07,0.507-0.087,0.766
	c-2.034,18.172-3.196,36.218-3.465,54.029h-2.68c-4.034,0-8.119,0.323-12.14,0.958c-0.001,0-0.002,0-0.003,0.001
	c-25.832,4.08-47.663,20.801-58.398,44.729c-0.016,0.034-0.031,0.07-0.046,0.105l-0.176,0.407c-0.004,0.01-0.006,0.019-0.011,0.029
	c-3.127,7.111-5.124,14.546-6,22.189c-15.859-2.137-30.513-9.344-42.022-20.852c-6.585-6.585-15.338-10.21-24.65-10.21
	s-18.065,3.625-24.65,10.21S0,332.987,0,342.299s3.625,18.066,10.21,24.65c25.737,25.738,59.547,40.464,95.719,41.837
	c-8.021,8.75-12.925,20.402-12.925,33.18c0,27.104,22.05,49.154,49.152,49.154c27.104,0,49.154-22.051,49.154-49.154
	c0-12.72-4.858-24.327-12.815-33.063h22.428c4.443,0,8.045-3.601,8.045-8.045s-3.602-8.045-8.045-8.045h-89.429
	c-33.963,0-65.894-13.226-89.909-37.242c-3.545-3.545-5.497-8.258-5.497-13.272s1.952-9.728,5.497-13.273
	c7.318-7.319,19.228-7.319,26.546,0c15.875,15.874,36.657,25.058,58.925,26.137c0.639,0.163,1.306,0.26,1.996,0.26h134.224l0,0l0,0
	h149.63c0.529,0,1.045-0.055,1.546-0.152h6.052c23.934,0,46.437-9.321,63.362-26.246c7.318-7.32,19.228-7.32,26.546,0
	c7.318,7.318,7.318,19.227,0,26.545c-24.016,24.016-55.945,37.242-89.909,37.242H233.101c-4.443,0-8.045,3.601-8.045,8.045
	s3.602,8.045,8.045,8.045h100.402c-7.957,8.738-12.814,20.343-12.814,33.063c0,27.104,22.05,49.154,49.152,49.154
	c27.104,0,49.154-22.051,49.154-49.154c0-12.778-4.904-24.429-12.925-33.18c36.172-1.373,69.982-16.099,95.719-41.837
	C508.375,360.364,512,351.611,512,342.299z M142.158,408.902c18.232,0,33.064,14.832,33.064,33.063
	c0,18.232-14.832,33.064-33.064,33.064c-18.231,0-33.063-14.832-33.063-33.064C109.093,423.735,123.926,408.902,142.158,408.902z
	 M264.938,308.919c0.06-0.074,0.102-0.16,0.16-0.236c8.319-10.232,19.751-17.547,32.747-20.724
	c3.547,6.342,5.438,13.683,5.438,20.95c0,0.791-0.027,1.584-0.071,2.378c-0.002,0.046-0.009,0.092-0.011,0.139h-40.163
	C263.655,310.58,264.277,309.736,264.938,308.919z M208.018,168.945h54.886c-1.022,4.655-1.976,9.304-2.871,13.946h-54.604
	C206.237,178.245,207.096,173.595,208.018,168.945z M202.862,198.98h54.318c-0.516,3.19-1.005,6.376-1.46,9.556h-54.168
	C201.961,205.353,202.399,202.168,202.862,198.98z M163.623,287.963c3.545,6.342,5.436,13.681,5.436,20.946
	c0,0.79-0.027,1.584-0.071,2.378c-0.002,0.046-0.009,0.092-0.011,0.139h-40.223C137.195,299.754,149.488,291.414,163.623,287.963z
	 M237.807,327.557c-0.008,0.028-0.014,0.057-0.021,0.086c-1,3.781-1.711,7.651-2.121,11.54H117.646
	c0.533-3.973,1.451-7.87,2.76-11.667h55.59h61.821C237.813,327.529,237.811,327.543,237.807,327.557z M250.64,301.044
	c-2.429,3.255-4.62,6.723-6.54,10.382h-59.007c0.036-0.84,0.055-1.679,0.055-2.517c0-7.737-1.519-15.496-4.491-22.642
	c-0.013-0.031-0.024-0.063-0.036-0.094h8.345h61.675v14.872H250.64z M197.071,270.085c0.233-14.999,1.121-30.176,2.645-45.46h53.957
	c-1.707,15.318-2.702,30.493-2.964,45.46H197.071z M384.864,339.182H251.886c0.009,0,0.96-5.345,1.079-5.852
	c0.463-1.966,1.026-3.905,1.685-5.815h55.57h74.643v11.667H384.864z M384.864,311.426h-65.546c0.036-0.84,0.055-1.679,0.055-2.517
	c0-7.726-1.511-15.507-4.491-22.641c-0.013-0.032-0.024-0.064-0.038-0.095h8.345h61.675L384.864,311.426L384.864,311.426z
	 M384.934,270.085h-53.638c0.233-14.999,1.121-30.176,2.645-45.46h53.956C386.191,239.942,385.196,255.117,384.934,270.085z
	 M389.944,208.536h-54.168c0.409-3.182,0.846-6.368,1.311-9.556h54.317C390.888,202.17,390.4,205.356,389.944,208.536z
	 M394.256,182.891h-54.602c0.808-4.645,1.667-9.294,2.589-13.946h54.886C396.105,173.6,395.152,178.248,394.256,182.891z
	 M369.843,475.031c-18.231,0-33.063-14.832-33.063-33.064c0-18.231,14.832-33.063,33.063-33.063
	c18.232,0,33.064,14.832,33.064,33.063C402.907,460.199,388.075,475.031,369.843,475.031z"/>
<path d="M142.158,466.93c13.766,0,24.965-11.198,24.965-24.964s-11.199-24.964-24.965-24.964c-13.765,0-24.964,11.198-24.964,24.964
	S128.392,466.93,142.158,466.93z M142.158,433.091c4.894,0,8.876,3.982,8.876,8.875c0,4.893-3.982,8.875-8.876,8.875
	c-4.894,0-8.875-3.982-8.875-8.875C133.283,437.072,137.263,433.091,142.158,433.091z"/>
<path d="M369.843,417.001c-13.765,0-24.964,11.198-24.964,24.964s11.199,24.964,24.964,24.964c13.766,0,24.965-11.198,24.965-24.964
	S383.609,417.001,369.843,417.001z M369.843,450.841c-4.894,0-8.875-3.982-8.875-8.875c0-4.893,3.982-8.875,8.875-8.875
	c4.894,0,8.876,3.982,8.876,8.875C378.719,446.86,374.738,450.841,369.843,450.841z"/>
</svg>