<?xml version="1.0" encoding="iso-8859-1"?>
<!-- Uploaded to: SVG Repo, www.svgrepo.com, Generator: SVG Repo Mixer Tools -->
<svg fill="#000000" height="800px" width="800px" version="1.1" id="Capa_1" xmlns="http://www.w3.org/2000/svg" xmlns:xlink="http://www.w3.org/1999/xlink" 
	 viewBox="0 0 64.006 64.006" xml:space="preserve">
<g id="Tennis-raquets">
	<path d="M61.188,18.038c-4.755-4.755-13.946-3.3-20.487,3.24c-3.123,3.124-5.2,6.941-5.847,10.747
		c-0.609,3.582,0.118,6.76,2.023,9.075l-4.874,4.875l-4.875-4.876c4.021-4.906,2.43-13.567-3.821-19.82
		c-6.543-6.54-15.732-7.996-20.488-3.24c-2.35,2.348-3.275,5.808-2.606,9.74c0.646,3.807,2.723,7.624,5.847,10.748
		c3.943,3.943,8.85,6.038,13.167,6.038c2.442,0,4.693-0.676,6.478-2.061l4.886,4.886l-9.656,9.658c-0.391,0.391-0.391,1.023,0,1.414
		c0.195,0.195,0.451,0.293,0.707,0.293c0.256,0,0.512-0.098,0.707-0.293l9.656-9.658l9.656,9.658
		c0.195,0.195,0.451,0.293,0.707,0.293c0.256,0,0.512-0.098,0.707-0.293c0.391-0.391,0.391-1.024,0-1.414l-9.656-9.658l4.886-4.886
		c1.784,1.386,4.034,2.061,6.478,2.061c4.317,0,9.224-2.095,13.167-6.038c3.124-3.124,5.2-6.94,5.847-10.748
		C64.463,23.846,63.537,20.386,61.188,18.038z M7.473,37.112c-2.833-2.833-4.712-6.267-5.289-9.668
		c-0.557-3.276,0.171-6.114,2.049-7.991c1.516-1.515,3.602-2.241,5.927-2.241c3.773,0,8.167,1.916,11.733,5.481
		c5.762,5.763,7.215,13.685,3.24,17.66C21.157,44.326,13.235,42.873,7.473,37.112z M61.822,27.443
		c-0.577,3.402-2.456,6.835-5.289,9.668c-5.764,5.763-13.685,7.214-17.66,3.24c-1.877-1.877-2.604-4.715-2.048-7.991
		c0.578-3.402,2.456-6.836,5.289-9.669c3.566-3.566,7.96-5.481,11.732-5.481c2.323,0,4.412,0.726,5.927,2.241
		C61.651,21.329,62.379,24.167,61.822,27.443z"/>
	<path d="M33.003,15.253c2.757,0,5-2.243,5-5c0-2.757-2.243-5-5-5c-2.757,0-5,2.243-5,5C28.003,13.01,30.246,15.253,33.003,15.253z
		 M33.003,7.253c1.654,0,3,1.346,3,3s-1.346,3-3,3c-1.654,0-3-1.346-3-3S31.349,7.253,33.003,7.253z"/>
</g>
</svg>