<?xml version="1.0" encoding="iso-8859-1"?>
<!-- Uploaded to: SVG Repo, www.svgrepo.com, Generator: SVG Repo Mixer Tools -->
<svg height="800px" width="800px" version="1.1" id="Layer_1" xmlns="http://www.w3.org/2000/svg" xmlns:xlink="http://www.w3.org/1999/xlink" 
	 viewBox="0 0 512.001 512.001" xml:space="preserve">
<g>
	<path style="fill:#E16600;" d="M71.238,422.02c17.425,19.379,37.855,36,60.558,49.133c40.236-23.282,73.328-57.51,95.197-98.608
		l0,0C114.949,343.484,40.699,242.437,40.907,131.823l-0.053-0.031C19.705,168.327,7.608,210.753,7.608,256
		c0,56.53,18.882,108.649,50.687,150.393"/>
	<path style="fill:#E16600;" d="M371.423,222.839c30.847,111.58-19.518,226.395-115.428,281.538
		C393.176,504.387,504.392,393.18,504.392,256C464.135,232.788,417.961,221.246,371.423,222.839L371.423,222.839z"/>
	<path style="fill:#E16600;" d="M169.596,172.603c20.813,33.422,49.934,62.344,86.4,83.398
		c36.476-21.063,76.078-31.817,115.428-33.161c46.537-1.593,92.713,9.949,132.968,33.142c0-45.248-12.107-87.654-33.246-124.19
		l-0.053,0.031C375.401,76.336,250.764,90.116,169.596,172.603L169.596,172.603z"/>
	<path style="fill:#E16600;" d="M226.97,372.532c18.533-34.738,29.024-74.409,29.024-116.532
		c-36.466-21.054-65.586-49.976-86.421-83.386c-24.652-39.49-37.745-85.26-37.788-131.733
		c-37.704,21.784-69.127,53.217-90.931,90.91l0.053,0.031C40.699,242.437,114.949,343.484,226.97,372.532L226.97,372.532z"/>
	<path style="fill:#E16600;" d="M371.423,222.872c-39.35,1.312-78.952,12.067-115.428,33.128c0,42.122-10.492,81.793-29.003,116.544
		c-21.869,41.099-54.961,75.326-95.186,98.596c36.525,21.15,78.941,33.246,124.188,33.246
		C351.905,449.234,402.27,334.419,371.423,222.872L371.423,222.872z"/>
	<path style="fill:#E16600;" d="M169.573,172.614c81.191-82.498,205.826-96.278,301.518-40.792l0.053-0.031
		C428.191,57.558,347.929,7.614,255.995,7.614c-45.258,0-87.69,12.097-124.22,33.247
		C131.828,87.354,144.922,133.124,169.573,172.614L169.573,172.614z"/>
</g>
<path style="fill:#153651;" d="M511.96,251.582c-0.703-40.969-11.225-81.202-30.589-117.075l0.101-0.06l-3.742-6.466
	c-0.005-0.008-0.011-0.017-0.015-0.025l-3.918-6.65l-0.056,0.033c-21.87-35.281-52.135-64.924-87.941-86.028
	C346.615,12.214,301.729,0.006,255.995,0.006c-40.668,0-80.713,9.667-116.613,28.05v-0.35l-8.673,5.011
	c-0.917,0.515-1.835,1.032-2.746,1.559l-3.801,2.2v0.069C89.24,57.541,59.728,86.682,38.255,121.333l-0.102-0.062l-3.883,6.707
	c-0.71,1.227-1.41,2.461-2.099,3.7l-1.589,2.799l0.046,0.027C10.572,171.646,0,213.486,0,256
	c0,56.546,18.066,110.146,52.244,155.004l12.104-9.222C32.205,359.597,15.217,309.186,15.217,256
	c0-32.93,6.739-65.429,19.646-95.376c6.223,56.071,30.717,107.399,68.123,147.078c0.159,0.169,0.32,0.338,0.48,0.507
	c0.728,0.768,1.46,1.532,2.197,2.292c28.045,29.032,62.235,50.707,100.71,63.793c0.101,0.034,0.204,0.068,0.305,0.103
	c1.309,0.443,2.619,0.881,3.938,1.304c0.671,0.216,1.344,0.424,2.018,0.635c0.827,0.258,1.653,0.52,2.484,0.771
	c0.174,0.053,0.348,0.11,0.523,0.162c-0.096,0.164-0.194,0.327-0.29,0.491c-1.176,2.004-2.373,3.993-3.603,5.958
	c-0.025,0.041-0.052,0.08-0.077,0.12c-1.243,1.982-2.516,3.942-3.815,5.884c-0.117,0.176-0.232,0.353-0.35,0.529
	c-1.261,1.878-2.553,3.732-3.865,5.571c-0.191,0.268-0.382,0.537-0.574,0.804c-1.296,1.801-2.617,3.582-3.961,5.345
	c-0.203,0.267-0.407,0.532-0.613,0.797c-1.372,1.782-2.763,3.548-4.183,5.289c-0.147,0.182-0.297,0.359-0.444,0.541
	c-2.995,3.654-6.096,7.22-9.298,10.689c-0.14,0.152-0.279,0.305-0.418,0.457c-1.539,1.658-3.103,3.291-4.687,4.906
	c-0.224,0.227-0.445,0.455-0.671,0.682c-1.562,1.579-3.147,3.138-4.753,4.674c-0.235,0.225-0.473,0.448-0.709,0.673
	c-1.632,1.548-3.283,3.078-4.96,4.581c-0.172,0.155-0.349,0.307-0.522,0.463c-3.484,3.105-7.058,6.111-10.722,9.015
	c-0.235,0.186-0.468,0.374-0.703,0.56c-1.718,1.352-3.46,2.677-5.217,3.984c-0.334,0.249-0.667,0.496-1.002,0.743
	c-1.722,1.267-3.462,2.512-5.22,3.734c-0.363,0.253-0.73,0.504-1.096,0.755c-1.772,1.218-3.559,2.417-5.365,3.589
	c-0.318,0.206-0.639,0.407-0.957,0.612c-1.724,1.107-3.462,2.194-5.217,3.258c-0.187,0.114-0.371,0.23-0.559,0.343
	c-20.434-12.323-38.883-27.573-54.894-45.38L65.58,427.107c15.169,16.87,32.406,31.572,51.355,43.848l-0.318,0.184l9.906,5.735
	c0.488,0.287,0.973,0.582,1.463,0.865l3.81,2.203l0.055-0.031c30.178,16.773,63.57,27.213,97.968,30.741l-2.318,1.332l27.278,0.002
	c0.405,0.002,0.811,0.01,1.215,0.01h2.032l0.062-0.035c67.594-0.534,131.069-27.091,178.928-74.945
	c45.288-45.284,71.517-104.546,74.662-168.057l0.323,0.186V256v-0.02v-4.375L511.96,251.582z M494.754,242.196
	c-1.163-0.581-2.33-1.153-3.501-1.715c-1.035-0.497-2.071-0.988-3.111-1.471c-1.318-0.612-2.641-1.211-3.966-1.801
	c-0.718-0.319-1.434-0.64-2.155-0.953c-1.687-0.73-3.383-1.436-5.085-2.13c-0.699-0.285-1.399-0.569-2.1-0.847
	c-1.744-0.694-3.495-1.367-5.254-2.022c-0.643-0.239-1.288-0.474-1.932-0.707c-1.833-0.665-3.671-1.317-5.519-1.941
	c-0.524-0.176-1.049-0.345-1.574-0.518c-1.8-0.594-3.605-1.173-5.417-1.728c-0.442-0.135-0.886-0.271-1.33-0.404
	c-1.904-0.572-3.815-1.117-5.732-1.644c-0.455-0.126-0.911-0.255-1.368-0.378c-2.004-0.54-4.013-1.05-6.028-1.54
	c-0.495-0.121-0.991-0.241-1.486-0.359c-2.023-0.48-4.05-0.934-6.084-1.365c-0.463-0.098-0.926-0.193-1.39-0.288
	c-2.091-0.431-4.187-0.841-6.289-1.219c-0.347-0.063-0.695-0.12-1.041-0.181c-2.185-0.384-4.375-0.748-6.57-1.075
	c-0.104-0.016-0.209-0.031-0.314-0.048c-2.237-0.332-4.481-0.627-6.728-0.899c-0.319-0.039-0.635-0.081-0.954-0.118
	c-2.178-0.256-4.361-0.48-6.546-0.68c-0.395-0.037-0.789-0.073-1.185-0.108c-2.167-0.189-4.336-0.349-6.509-0.482
	c-0.384-0.023-0.769-0.045-1.154-0.067c-2.215-0.126-4.431-0.227-6.651-0.295c-0.279-0.008-0.559-0.013-0.838-0.02
	c-2.341-0.065-4.684-0.104-7.03-0.104c-0.91,0-1.827,0.013-2.743,0.023l-0.011-0.041l-1.716,0.058c-1.43,0.024-2.86,0.061-4.28,0.11
	l-9.644,0.33l0.057,0.205c-0.52,0.038-1.039,0.082-1.558,0.124c-0.308,0.023-0.616,0.048-0.924,0.073
	c-2,0.165-3.998,0.355-5.994,0.568c-0.711,0.075-1.422,0.152-2.133,0.233c-1.513,0.174-3.024,0.362-4.536,0.564
	c-1.134,0.151-2.268,0.308-3.4,0.475c-0.953,0.14-1.904,0.279-2.855,0.43c-1.651,0.262-3.298,0.546-4.942,0.84
	c-0.799,0.143-1.599,0.286-2.396,0.437c-1.761,0.333-3.519,0.687-5.273,1.057c-0.68,0.144-1.358,0.287-2.036,0.436
	c-1.849,0.405-3.694,0.833-5.534,1.279c-0.576,0.14-1.152,0.282-1.729,0.426c-1.919,0.48-3.834,0.982-5.743,1.505
	c-0.49,0.135-0.981,0.273-1.471,0.41c-1.977,0.556-3.95,1.134-5.915,1.738c-0.411,0.127-0.822,0.257-1.235,0.384
	c-2.028,0.634-4.05,1.291-6.063,1.976c-0.341,0.116-0.681,0.234-1.021,0.353c-2.072,0.714-4.137,1.453-6.192,2.22
	c-0.27,0.1-0.538,0.205-0.806,0.306c-2.117,0.799-4.225,1.623-6.32,2.477c-0.195,0.079-0.388,0.161-0.581,0.241
	c-2.164,0.889-4.317,1.804-6.457,2.752c-0.109,0.048-0.217,0.098-0.326,0.147c-4.465,1.986-8.877,4.1-13.228,6.342
	c-0.074,0.039-0.149,0.075-0.224,0.114c-2.116,1.094-4.216,2.221-6.304,3.373c-0.092,0.051-0.186,0.097-0.276,0.148
	c-0.477-0.287-0.958-0.567-1.432-0.856c-0.872-0.534-1.741-1.074-2.605-1.618c-1.142-0.718-2.276-1.445-3.405-2.181
	c-0.852-0.556-1.702-1.115-2.547-1.682c-1.13-0.758-2.251-1.529-3.367-2.306c-0.822-0.571-1.643-1.141-2.457-1.723
	c-1.132-0.809-2.252-1.633-3.369-2.461c-0.777-0.574-1.556-1.144-2.325-1.729c-1.163-0.883-2.308-1.784-3.453-2.687
	c-0.704-0.554-1.415-1.1-2.112-1.663c-1.28-1.032-2.539-2.088-3.797-3.145c-0.544-0.456-1.097-0.902-1.635-1.363
	c-1.769-1.514-3.517-3.051-5.241-4.615c-0.505-0.458-0.994-0.93-1.495-1.393c-1.215-1.121-2.43-2.244-3.621-3.389
	c-0.743-0.714-1.467-1.445-2.2-2.168c-0.924-0.911-1.85-1.819-2.759-2.744c-0.81-0.824-1.602-1.663-2.399-2.498
	c-0.802-0.842-1.608-1.683-2.398-2.536c-0.842-0.908-1.672-1.829-2.499-2.75c-0.712-0.791-1.422-1.586-2.124-2.387
	c-0.868-0.994-1.728-1.997-2.581-3.006c-0.621-0.734-1.239-1.471-1.851-2.212c-0.901-1.092-1.793-2.188-2.673-3.295
	c-0.52-0.653-1.035-1.311-1.547-1.969c-0.944-1.212-1.881-2.43-2.803-3.659c-0.39-0.521-0.772-1.048-1.158-1.571
	c-1.018-1.386-2.031-2.776-3.02-4.184c-0.193-0.274-0.379-0.552-0.571-0.827c-1.13-1.624-2.248-3.257-3.337-4.91
	c3.956-3.828,8.027-7.497,12.194-11.02c0.313-0.265,0.622-0.538,0.937-0.801c1.042-0.872,2.097-1.724,3.151-2.577
	c0.484-0.391,0.96-0.788,1.446-1.175c0.964-0.768,1.94-1.517,2.914-2.268c0.587-0.453,1.17-0.914,1.761-1.361
	c0.918-0.696,1.848-1.374,2.776-2.055c0.657-0.483,1.312-0.972,1.973-1.448c0.889-0.64,1.788-1.264,2.684-1.89
	c0.713-0.498,1.423-1,2.14-1.49c0.869-0.593,1.749-1.174,2.625-1.755c0.755-0.501,1.508-1.005,2.268-1.497
	c0.859-0.556,1.725-1.099,2.59-1.642c0.79-0.497,1.579-0.996,2.376-1.484c0.85-0.521,1.708-1.031,2.563-1.541
	c0.822-0.489,1.641-0.979,2.468-1.459c0.847-0.49,1.699-0.971,2.551-1.451c0.847-0.477,1.694-0.954,2.547-1.42
	c0.844-0.462,1.692-0.913,2.541-1.364c0.871-0.463,1.745-0.925,2.621-1.378c0.842-0.435,1.689-0.86,2.536-1.284
	c0.894-0.447,1.789-0.892,2.687-1.328c0.843-0.409,1.689-0.811,2.536-1.208c0.913-0.43,1.829-0.855,2.747-1.273
	c0.843-0.383,1.688-0.761,2.536-1.134c0.933-0.412,1.871-0.819,2.81-1.218c0.842-0.358,1.686-0.711,2.532-1.06
	c0.954-0.393,1.909-0.779,2.867-1.16c0.843-0.335,1.687-0.664,2.533-0.989c0.972-0.372,1.947-0.737,2.924-1.098
	c0.842-0.31,1.686-0.618,2.532-0.919c0.989-0.351,1.979-0.695,2.973-1.033c0.843-0.287,1.688-0.573,2.535-0.851
	c1.006-0.331,2.017-0.651,3.027-0.969c0.842-0.264,1.683-0.526,2.528-0.781c1.025-0.309,2.051-0.607,3.081-0.902
	c0.841-0.241,1.683-0.483,2.527-0.715c1.041-0.286,2.086-0.559,3.13-0.831c0.84-0.219,1.678-0.438,2.52-0.648
	c1.062-0.264,2.127-0.514,3.192-0.764c0.833-0.195,1.666-0.393,2.502-0.578c1.082-0.241,2.171-0.469,3.258-0.695
	c0.826-0.172,1.651-0.348,2.477-0.511c1.108-0.219,2.22-0.421,3.33-0.624c0.815-0.148,1.628-0.302,2.444-0.443
	c1.139-0.196,2.283-0.374,3.425-0.554c0.795-0.125,1.589-0.256,2.386-0.373c1.176-0.172,2.355-0.327,3.533-0.482
	c0.773-0.102,1.543-0.212,2.317-0.306c1.217-0.149,2.44-0.277,3.662-0.408c0.741-0.079,1.479-0.167,2.221-0.239
	c1.286-0.125,2.576-0.228,3.865-0.334c0.684-0.056,1.364-0.122,2.049-0.171c1.404-0.103,2.812-0.182,4.221-0.26
	c0.574-0.032,1.146-0.075,1.721-0.102c1.659-0.081,3.321-0.137,4.986-0.184c0.33-0.009,0.656-0.027,0.987-0.036
	c2.009-0.049,4.023-0.074,6.04-0.074c2.651,0,5.299,0.044,7.943,0.131c0.037,0.001,0.073,0.003,0.109,0.004
	c1.277,0.043,2.552,0.094,3.826,0.157c0.212,0.011,0.423,0.025,0.635,0.037c1.099,0.057,2.196,0.118,3.293,0.19
	c0.316,0.021,0.629,0.047,0.944,0.069c0.993,0.069,1.985,0.139,2.977,0.22c0.377,0.031,0.754,0.068,1.131,0.101
	c0.928,0.08,1.855,0.161,2.782,0.252c0.419,0.042,0.836,0.088,1.254,0.132c0.884,0.091,1.768,0.183,2.651,0.284
	c0.445,0.051,0.889,0.109,1.333,0.162c0.856,0.103,1.71,0.206,2.565,0.318c0.466,0.061,0.928,0.129,1.393,0.193
	c0.83,0.114,1.661,0.226,2.488,0.349c0.488,0.072,0.976,0.151,1.464,0.227c0.802,0.124,1.606,0.247,2.408,0.378
	c0.499,0.082,0.997,0.17,1.497,0.256c0.789,0.135,1.579,0.269,2.368,0.412c0.504,0.091,1.008,0.189,1.512,0.284
	c0.779,0.146,1.557,0.291,2.335,0.445c0.517,0.102,1.034,0.211,1.55,0.318c0.76,0.155,1.521,0.31,2.279,0.473
	c0.527,0.114,1.053,0.232,1.578,0.35c0.748,0.165,1.496,0.331,2.242,0.504c0.532,0.123,1.063,0.253,1.594,0.379
	c0.737,0.177,1.474,0.352,2.209,0.535c0.537,0.133,1.071,0.273,1.607,0.41c0.727,0.187,1.455,0.372,2.18,0.566
	c0.54,0.144,1.078,0.293,1.617,0.441c0.718,0.197,1.437,0.394,2.155,0.596c0.542,0.153,1.081,0.313,1.622,0.47
	c0.71,0.207,1.419,0.414,2.128,0.627c0.548,0.165,1.095,0.336,1.641,0.504c0.696,0.215,1.393,0.43,2.088,0.652
	c0.553,0.177,1.105,0.358,1.658,0.539c0.686,0.224,1.371,0.448,2.054,0.68c0.554,0.187,1.105,0.377,1.657,0.568
	c0.682,0.235,1.362,0.471,2.041,0.712c0.553,0.196,1.104,0.397,1.654,0.597c0.673,0.244,1.344,0.489,2.014,0.74
	c0.558,0.208,1.113,0.421,1.669,0.633c0.659,0.253,1.321,0.505,1.979,0.764c0.558,0.219,1.115,0.442,1.671,0.665
	c0.653,0.262,1.306,0.524,1.957,0.792c0.559,0.23,1.117,0.465,1.673,0.698c0.643,0.271,1.286,0.542,1.925,0.818
	c0.561,0.241,1.12,0.487,1.68,0.733c0.633,0.279,1.266,0.558,1.897,0.842c0.562,0.253,1.12,0.509,1.68,0.766
	c0.624,0.286,1.247,0.574,1.869,0.866c0.564,0.265,1.126,0.534,1.688,0.802c0.614,0.294,1.226,0.59,1.838,0.89
	c0.563,0.275,1.124,0.555,1.684,0.835c0.607,0.302,1.21,0.607,1.814,0.914c0.563,0.288,1.124,0.578,1.686,0.87
	c0.595,0.31,1.191,0.623,1.784,0.938c0.562,0.298,1.123,0.6,1.681,0.903c0.589,0.319,1.178,0.64,1.764,0.965
	c0.559,0.309,1.116,0.62,1.672,0.934c0.305,0.171,0.61,0.346,0.913,0.519c18.268,32.243,28.81,68.451,30.807,105.552
	C495.878,242.736,495.313,242.473,494.754,242.196z M372.784,294.281c-0.017,0.777-0.046,1.552-0.069,2.328
	c-0.026,0.86-0.05,1.72-0.085,2.581c-0.03,0.744-0.074,1.486-0.112,2.23c-0.046,0.887-0.087,1.774-0.143,2.661
	c-0.045,0.722-0.1,1.444-0.151,2.166c-0.064,0.906-0.127,1.812-0.202,2.716c-0.058,0.7-0.125,1.399-0.189,2.098
	c-0.084,0.924-0.167,1.847-0.263,2.769c-0.07,0.681-0.149,1.359-0.225,2.038c-0.104,0.937-0.21,1.875-0.325,2.81
	c-0.083,0.667-0.173,1.332-0.262,1.997c-0.125,0.945-0.251,1.891-0.387,2.834c-0.094,0.652-0.196,1.304-0.295,1.956
	c-0.145,0.953-0.292,1.905-0.448,2.856c-0.107,0.641-0.219,1.282-0.33,1.922c-0.165,0.958-0.334,1.914-0.511,2.869
	c-0.117,0.631-0.239,1.26-0.362,1.89c-0.187,0.961-0.375,1.921-0.573,2.879c-0.128,0.62-0.262,1.238-0.395,1.856
	c-0.208,0.966-0.419,1.929-0.638,2.892c-0.139,0.61-0.282,1.217-0.425,1.825c-0.229,0.967-0.461,1.933-0.701,2.895
	c-0.148,0.6-0.302,1.197-0.456,1.796c-0.25,0.97-0.503,1.939-0.765,2.904c-0.158,0.585-0.321,1.171-0.484,1.755
	c-0.273,0.975-0.549,1.948-0.833,2.919c-0.167,0.572-0.338,1.144-0.509,1.716c-0.293,0.976-0.592,1.951-0.899,2.924
	c-0.177,0.563-0.356,1.124-0.537,1.686c-0.315,0.978-0.636,1.954-0.964,2.928c-0.186,0.551-0.372,1.102-0.562,1.651
	c-0.338,0.978-0.682,1.954-1.032,2.928c-0.194,0.541-0.39,1.081-0.587,1.62c-0.359,0.979-0.726,1.955-1.098,2.929
	c-0.202,0.529-0.404,1.057-0.609,1.584c-0.383,0.981-0.774,1.959-1.169,2.935c-0.208,0.514-0.417,1.029-0.628,1.542
	c-0.407,0.983-0.822,1.964-1.242,2.941c-0.214,0.5-0.428,0.999-0.645,1.498c-0.433,0.989-0.873,1.974-1.319,2.957
	c-0.218,0.481-0.434,0.962-0.655,1.442c-0.459,0.995-0.927,1.986-1.399,2.976c-0.221,0.463-0.44,0.925-0.662,1.385
	c-0.486,1.001-0.982,1.996-1.481,2.991c-0.224,0.444-0.445,0.891-0.671,1.333c-0.515,1.009-1.041,2.013-1.57,3.016
	c-0.222,0.42-0.441,0.841-0.665,1.259c-0.548,1.024-1.108,2.041-1.67,3.057c-0.218,0.392-0.432,0.785-0.652,1.176
	c-0.585,1.042-1.183,2.079-1.784,3.112c-0.208,0.358-0.413,0.717-0.622,1.073c-0.628,1.067-1.268,2.126-1.912,3.183
	c-0.195,0.319-0.385,0.639-0.581,0.958c-0.678,1.101-1.368,2.194-2.064,3.285c-0.171,0.268-0.339,0.538-0.511,0.805
	c-0.737,1.145-1.488,2.282-2.245,3.417c-0.14,0.209-0.275,0.42-0.416,0.628c-0.814,1.208-1.64,2.409-2.476,3.605
	c-0.089,0.128-0.177,0.259-0.267,0.387c-0.921,1.312-1.855,2.614-2.805,3.909c-0.007,0.01-0.014,0.02-0.021,0.029
	c-9.661,13.181-20.723,25.445-33.079,36.552c-0.062,0.056-0.125,0.11-0.187,0.164c-1.167,1.047-2.344,2.084-3.533,3.109
	c-0.109,0.093-0.217,0.185-0.325,0.276c-1.147,0.986-2.304,1.963-3.471,2.928c-0.145,0.12-0.291,0.236-0.437,0.357
	c-1.137,0.935-2.283,1.864-3.44,2.781c-0.168,0.133-0.34,0.265-0.508,0.398c-1.139,0.898-2.287,1.787-3.445,2.667
	c-0.189,0.143-0.378,0.283-0.568,0.425c-1.146,0.864-2.3,1.721-3.463,2.567c-0.201,0.147-0.405,0.29-0.608,0.436
	c-1.158,0.836-2.323,1.664-3.499,2.48c-0.212,0.148-0.427,0.293-0.64,0.44c-1.173,0.81-2.351,1.611-3.542,2.401
	c-0.22,0.146-0.441,0.289-0.66,0.435c-1.192,0.785-2.389,1.563-3.598,2.329c-0.223,0.141-0.447,0.281-0.671,0.422
	c-1.214,0.765-2.436,1.522-3.667,2.266c-0.221,0.134-0.442,0.266-0.664,0.399c-0.761,0.458-1.531,0.905-2.298,1.354
	c-37.28-0.321-73.944-9.271-106.916-26.029c2.161-1.405,4.294-2.847,6.408-4.312c0.171-0.119,0.345-0.236,0.516-0.356
	c2.008-1.4,3.993-2.83,5.957-4.286c0.274-0.204,0.55-0.407,0.825-0.612c1.91-1.426,3.798-2.878,5.666-4.354
	c0.292-0.232,0.583-0.465,0.874-0.697c1.868-1.49,3.716-3.003,5.539-4.543c0.234-0.198,0.467-0.4,0.7-0.599
	c1.884-1.604,3.749-3.227,5.585-4.883c0.073-0.066,0.145-0.134,0.218-0.2c1.814-1.639,3.6-3.308,5.365-4.998
	c0.184-0.175,0.369-0.348,0.552-0.524c1.715-1.651,3.402-3.331,5.069-5.03c0.279-0.284,0.561-0.567,0.838-0.853
	c1.617-1.662,3.21-3.347,4.781-5.052c0.294-0.32,0.587-0.64,0.88-0.961c1.565-1.715,3.108-3.451,4.628-5.209
	c0.253-0.293,0.503-0.59,0.756-0.885c1.555-1.818,3.091-3.654,4.595-5.516c0.144-0.178,0.283-0.358,0.426-0.536
	c1.513-1.882,3-3.784,4.459-5.709c0.099-0.13,0.2-0.258,0.299-0.389c1.465-1.942,2.898-3.91,4.31-5.894
	c0.204-0.287,0.411-0.572,0.613-0.86c1.357-1.923,2.684-3.869,3.99-5.832c0.229-0.344,0.458-0.689,0.685-1.035
	c1.289-1.96,2.553-3.937,3.789-5.934c0.205-0.333,0.408-0.667,0.613-0.999c1.253-2.045,2.482-4.106,3.681-6.19
	c0.137-0.237,0.27-0.478,0.405-0.716c0.264-0.463,0.525-0.925,0.785-1.389l0.048,0.012l1.286-2.409
	c0.524-0.956,1.049-1.91,1.561-2.873l4.531-8.516l-0.202-0.053c0.09-0.185,0.177-0.371,0.266-0.556
	c0.371-0.772,0.741-1.545,1.105-2.321c0.619-1.32,1.226-2.645,1.823-3.974c0.49-1.094,0.973-2.19,1.448-3.29
	c0.404-0.938,0.807-1.877,1.201-2.82c0.615-1.476,1.213-2.96,1.801-4.447c0.287-0.726,0.576-1.453,0.856-2.181
	c0.652-1.694,1.28-3.397,1.895-5.106c0.231-0.641,0.463-1.282,0.688-1.924c0.629-1.791,1.235-3.59,1.824-5.395
	c0.186-0.569,0.37-1.137,0.552-1.708c0.598-1.876,1.172-3.76,1.726-5.648c0.148-0.506,0.296-1.013,0.441-1.521
	c0.56-1.954,1.097-3.913,1.61-5.88c0.117-0.449,0.232-0.9,0.347-1.35c0.517-2.025,1.01-4.055,1.478-6.092
	c0.09-0.395,0.178-0.79,0.267-1.185c0.47-2.092,0.915-4.19,1.332-6.294c0.068-0.343,0.133-0.686,0.199-1.03
	c0.418-2.157,0.813-4.318,1.176-6.485c0.049-0.287,0.093-0.574,0.14-0.862c0.365-2.227,0.706-4.458,1.012-6.696
	c0.029-0.217,0.057-0.435,0.086-0.652c0.31-2.306,0.593-4.616,0.841-6.932c0.015-0.138,0.026-0.276,0.042-0.415
	c0.252-2.396,0.475-4.796,0.659-7.199c0.002-0.031,0.004-0.062,0.006-0.093c0.185-2.398,0.331-4.8,0.446-7.207
	c0.006-0.123,0.015-0.244,0.02-0.367c0.11-2.34,0.184-4.683,0.228-7.027c0.003-0.133,0.011-0.267,0.013-0.401
	c0.484-0.268,0.963-0.542,1.448-0.806c0.906-0.493,1.814-0.978,2.726-1.459c1.184-0.626,2.373-1.241,3.567-1.846
	c0.917-0.465,1.836-0.926,2.758-1.379c1.207-0.592,2.421-1.171,3.638-1.744c0.921-0.433,1.841-0.867,2.767-1.288
	c1.243-0.566,2.495-1.113,3.746-1.658c0.911-0.396,1.819-0.797,2.734-1.182c1.301-0.547,2.611-1.07,3.921-1.594
	c0.878-0.351,1.753-0.712,2.634-1.053c1.435-0.555,2.882-1.08,4.329-1.608c0.767-0.279,1.528-0.573,2.297-0.844
	c2.171-0.767,4.352-1.502,6.542-2.206c0.872-0.28,1.753-0.534,2.628-0.804c1.347-0.416,2.694-0.838,4.049-1.23
	c1.137-0.33,2.281-0.633,3.424-0.945c1.095-0.3,2.187-0.607,3.286-0.891c1.25-0.323,2.507-0.624,3.762-0.927
	c0.986-0.238,1.97-0.48,2.96-0.706c1.344-0.307,2.692-0.594,4.042-0.877c0.889-0.188,1.776-0.374,2.667-0.552
	c1.447-0.287,2.895-0.557,4.346-0.817c0.772-0.139,1.544-0.275,2.318-0.406c1.569-0.265,3.141-0.516,4.714-0.751
	c0.614-0.091,1.229-0.178,1.844-0.265c1.736-0.243,3.473-0.476,5.213-0.681c0.373-0.045,0.748-0.083,1.121-0.126
	c4.187-0.474,8.383-0.845,12.588-1.095c0.015,0.057,0.027,0.114,0.042,0.17c0.388,1.553,0.76,3.107,1.115,4.662
	c0.013,0.055,0.023,0.109,0.037,0.163c0.357,1.57,0.699,3.141,1.025,4.712c0.006,0.028,0.011,0.058,0.017,0.087
	c2.585,12.526,4.135,25.095,4.712,37.605c0.02,0.446,0.049,0.894,0.066,1.34c0.041,0.995,0.065,1.99,0.092,2.986
	c0.018,0.651,0.044,1.304,0.057,1.954c0.017,0.885,0.02,1.768,0.027,2.652c0.006,0.759,0.019,1.519,0.019,2.276
	c-0.001,0.821-0.015,1.64-0.023,2.46C372.804,292.644,372.8,293.463,372.784,294.281z M378.074,48.42
	c27.708,16.331,51.896,38.098,71.058,63.781c-0.021-0.009-0.044-0.018-0.065-0.027c-1.78-0.776-3.571-1.525-5.368-2.26
	c-0.36-0.147-0.72-0.296-1.08-0.441c-1.772-0.715-3.552-1.412-5.339-2.088c-0.316-0.119-0.633-0.234-0.95-0.353
	c-1.709-0.638-3.426-1.26-5.149-1.861c-0.189-0.066-0.377-0.135-0.567-0.201c-1.831-0.634-3.671-1.243-5.517-1.836
	c-0.377-0.121-0.754-0.241-1.131-0.36c-1.848-0.584-3.701-1.151-5.562-1.693c-0.201-0.059-0.403-0.114-0.605-0.172
	c-1.763-0.509-3.533-0.997-5.308-1.468c-0.299-0.079-0.598-0.161-0.897-0.239c-1.867-0.488-3.738-0.953-5.615-1.399
	c-0.36-0.085-0.719-0.168-1.079-0.252c-3.861-0.9-7.743-1.709-11.645-2.431c-0.358-0.066-0.715-0.133-1.072-0.198
	c-1.906-0.343-3.815-0.666-5.729-0.967c-0.302-0.048-0.606-0.091-0.908-0.138c-1.846-0.283-3.697-0.549-5.55-0.791
	c-0.176-0.022-0.351-0.049-0.527-0.071c-1.947-0.252-3.898-0.475-5.853-0.682c-0.373-0.04-0.746-0.078-1.119-0.116
	c-1.957-0.198-3.914-0.378-5.877-0.532c-0.18-0.014-0.359-0.024-0.538-0.039c-1.874-0.142-3.748-0.262-5.627-0.363
	c-0.295-0.016-0.591-0.034-0.888-0.049c-1.952-0.098-3.906-0.172-5.861-0.227c-0.354-0.01-0.707-0.017-1.061-0.025
	c-2.008-0.047-4.014-0.079-6.024-0.079c-0.583,0-1.164,0.018-1.747,0.021c-1.512,0.01-3.023,0.02-4.529,0.056
	c-0.919,0.021-1.837,0.065-2.755,0.096c-1.178,0.04-2.358,0.074-3.532,0.13c-0.987,0.047-1.968,0.115-2.953,0.172
	c-1.104,0.065-2.207,0.124-3.308,0.204c-1.009,0.073-2.015,0.164-3.021,0.249c-1.071,0.089-2.141,0.174-3.209,0.277
	c-1.023,0.098-2.04,0.214-3.06,0.325c-1.046,0.113-2.094,0.223-3.138,0.349c-1.027,0.124-2.047,0.263-3.071,0.4
	c-1.033,0.137-2.063,0.273-3.093,0.422c-1.029,0.149-2.052,0.312-3.078,0.474c-1.016,0.16-2.033,0.321-3.046,0.493
	c-1.027,0.174-2.05,0.36-3.072,0.548c-1.008,0.185-2.015,0.369-3.02,0.566c-1.022,0.199-2.039,0.408-3.058,0.619
	c-0.998,0.208-1.997,0.419-2.994,0.638c-1.014,0.224-2.027,0.455-3.038,0.692c-0.991,0.231-1.978,0.467-2.965,0.709
	c-1.011,0.249-2.02,0.503-3.027,0.764c-0.981,0.255-1.96,0.514-2.937,0.78c-1.002,0.273-2.004,0.55-3.002,0.834
	c-0.975,0.278-1.948,0.564-2.919,0.854c-0.992,0.295-1.985,0.594-2.974,0.903c-0.969,0.302-1.934,0.613-2.897,0.927
	c-0.983,0.32-1.965,0.639-2.943,0.97c-0.963,0.326-1.921,0.663-2.882,1.001c-0.97,0.341-1.941,0.682-2.905,1.035
	c-0.962,0.352-1.919,0.717-2.876,1.08c-0.954,0.362-1.908,0.721-2.857,1.096c-0.965,0.379-1.923,0.774-2.884,1.166
	c-0.931,0.379-1.865,0.755-2.79,1.145c-0.978,0.413-1.949,0.842-2.922,1.266c-0.9,0.394-1.802,0.78-2.697,1.184
	c-1.002,0.452-1.997,0.922-2.994,1.388c-0.854,0.399-1.712,0.789-2.562,1.198c-1.08,0.519-2.151,1.058-3.224,1.593
	c-0.756,0.376-1.518,0.743-2.27,1.127c-1.45,0.74-2.888,1.503-4.325,2.272c-0.367,0.196-0.74,0.383-1.106,0.582
	c-1.799,0.974-3.584,1.971-5.359,2.989c-0.548,0.314-1.088,0.644-1.635,0.963c-1.232,0.719-2.464,1.437-3.684,2.177
	c-0.636,0.385-1.265,0.787-1.898,1.179c-1.121,0.693-2.243,1.384-3.354,2.095c-0.661,0.423-1.316,0.861-1.973,1.291
	c-1.073,0.701-2.147,1.401-3.21,2.118c-0.661,0.447-1.316,0.906-1.974,1.359c-1.05,0.723-2.1,1.448-3.142,2.187
	c-0.649,0.462-1.291,0.934-1.937,1.403c-1.04,0.754-2.079,1.509-3.107,2.28c-0.631,0.472-1.257,0.954-1.884,1.432
	c-1.035,0.788-2.066,1.582-3.09,2.386c-0.608,0.479-1.21,0.965-1.814,1.45c-1.035,0.828-2.063,1.663-3.086,2.509
	c-0.58,0.48-1.156,0.966-1.733,1.452c-1.037,0.873-2.068,1.753-3.094,2.645c-0.548,0.477-1.094,0.958-1.638,1.439
	c-1.045,0.925-2.086,1.858-3.117,2.801c-0.51,0.466-1.018,0.935-1.526,1.406c-0.509,0.473-1.027,0.933-1.533,1.411
	c-0.325-0.569-0.647-1.14-0.968-1.713c-0.244-0.437-0.492-0.871-0.734-1.31c-0.489-0.884-0.967-1.772-1.444-2.661
	c-0.154-0.29-0.315-0.577-0.469-0.867c-0.623-1.176-1.238-2.357-1.84-3.54c-0.178-0.347-0.348-0.698-0.523-1.046
	c-0.425-0.844-0.849-1.689-1.264-2.537c-0.229-0.471-0.453-0.943-0.681-1.414c-0.351-0.731-0.701-1.462-1.046-2.196
	c-0.24-0.514-0.477-1.031-0.713-1.546c-0.321-0.697-0.64-1.394-0.953-2.094c-0.24-0.535-0.478-1.072-0.713-1.609
	c-0.301-0.686-0.601-1.372-0.895-2.059c-0.234-0.548-0.469-1.096-0.698-1.645c-0.287-0.685-0.571-1.372-0.852-2.059
	c-0.225-0.55-0.449-1.099-0.671-1.649c-0.281-0.704-0.558-1.41-0.833-2.116c-0.208-0.535-0.418-1.069-0.622-1.605
	c-0.286-0.75-0.565-1.502-0.843-2.255c-0.184-0.497-0.371-0.993-0.552-1.491c-0.349-0.961-0.688-1.925-1.024-2.891
	c-0.1-0.288-0.205-0.574-0.304-0.863c-0.426-1.239-0.84-2.479-1.247-3.724c-0.15-0.464-0.295-0.93-0.444-1.395
	c-0.256-0.803-0.512-1.606-0.76-2.411c-0.161-0.526-0.318-1.055-0.477-1.584c-0.225-0.75-0.448-1.5-0.666-2.252
	c-0.158-0.548-0.312-1.097-0.468-1.645c-0.208-0.739-0.414-1.477-0.615-2.217c-0.15-0.552-0.297-1.105-0.443-1.659
	c-0.197-0.749-0.392-1.497-0.581-2.248c-0.137-0.54-0.273-1.08-0.406-1.621c-0.193-0.782-0.38-1.566-0.565-2.35
	c-0.12-0.507-0.24-1.014-0.357-1.523c-0.196-0.856-0.384-1.712-0.571-2.571c-0.095-0.439-0.193-0.877-0.286-1.317
	c-0.22-1.042-0.432-2.086-0.638-3.131c-0.052-0.257-0.106-0.511-0.154-0.768c-0.522-2.683-0.998-5.376-1.428-8.078
	c-0.026-0.162-0.05-0.326-0.075-0.488c-0.186-1.177-0.362-2.355-0.531-3.535c-0.037-0.261-0.071-0.521-0.107-0.782
	c-0.151-1.094-0.298-2.188-0.435-3.285c-0.035-0.279-0.067-0.558-0.101-0.837c-0.134-1.098-0.261-2.196-0.378-3.296
	c-0.026-0.252-0.054-0.503-0.08-0.756c-0.121-1.161-0.233-2.322-0.338-3.486c-0.016-0.181-0.032-0.359-0.049-0.54
	c-0.114-1.303-0.218-2.606-0.311-3.912c-0.002-0.032-0.005-0.066-0.007-0.098c-0.293-4.148-0.48-8.309-0.559-12.482
	c35.482-19.668,75.68-30.041,116.556-30.041C299.014,15.222,341.228,26.702,378.074,48.42z M124.53,54.266
	c0.135,2.539,0.315,5.071,0.524,7.6c0.018,0.211,0.032,0.423,0.051,0.634c0.087,1.012,0.183,2.023,0.281,3.033
	c0.041,0.419,0.079,0.839,0.122,1.258c0.093,0.908,0.193,1.813,0.295,2.719c0.059,0.522,0.118,1.045,0.181,1.567
	c0.1,0.839,0.205,1.677,0.313,2.515c0.075,0.589,0.153,1.177,0.233,1.765c0.108,0.791,0.218,1.582,0.333,2.371
	c0.093,0.637,0.19,1.274,0.287,1.91c0.114,0.748,0.23,1.495,0.351,2.241c0.112,0.688,0.229,1.374,0.347,2.06
	c0.119,0.699,0.236,1.398,0.362,2.096c0.137,0.76,0.28,1.517,0.423,2.274c0.119,0.627,0.233,1.256,0.356,1.882
	c0.186,0.945,0.381,1.889,0.577,2.832c0.091,0.437,0.177,0.875,0.27,1.313c0.295,1.383,0.603,2.764,0.92,4.142
	c0.077,0.334,0.16,0.666,0.238,1c0.248,1.056,0.499,2.111,0.761,3.163c0.117,0.471,0.239,0.939,0.359,1.409
	c0.233,0.914,0.467,1.828,0.709,2.74c0.136,0.51,0.277,1.017,0.415,1.526c0.237,0.871,0.479,1.744,0.725,2.613
	c0.148,0.521,0.301,1.043,0.451,1.562c0.25,0.855,0.501,1.709,0.759,2.56c0.158,0.523,0.319,1.047,0.482,1.569
	c0.264,0.852,0.532,1.703,0.804,2.552c0.164,0.513,0.33,1.026,0.497,1.538c0.285,0.867,0.576,1.734,0.869,2.6
	c0.164,0.485,0.329,0.97,0.496,1.454c0.315,0.91,0.639,1.818,0.964,2.724c0.156,0.436,0.311,0.873,0.47,1.309
	c0.366,1.002,0.742,2.003,1.121,3.001c0.127,0.336,0.251,0.672,0.379,1.007c1.035,2.691,2.114,5.366,3.239,8.024
	c0.104,0.244,0.212,0.487,0.318,0.732c0.454,1.065,0.914,2.128,1.384,3.188c0.185,0.413,0.372,0.825,0.559,1.238
	c0.399,0.888,0.799,1.774,1.208,2.657c0.22,0.475,0.444,0.947,0.668,1.42c0.386,0.819,0.774,1.636,1.168,2.451
	c0.242,0.501,0.489,1,0.734,1.5c0.386,0.786,0.777,1.57,1.172,2.352c0.257,0.51,0.516,1.018,0.778,1.527
	c0.395,0.769,0.793,1.537,1.197,2.303c0.269,0.511,0.538,1.023,0.811,1.532c0.41,0.767,0.826,1.531,1.245,2.294
	c0.272,0.497,0.543,0.993,0.819,1.488c0.439,0.79,0.886,1.576,1.334,2.362c0.263,0.462,0.523,0.924,0.789,1.385
	c0.436,0.753,0.88,1.5,1.323,2.249l-0.033,0.035l1.226,1.969c0.634,1.048,1.273,2.093,1.922,3.134
	c0.001,0.002,0.003,0.004,0.004,0.006l5.107,8.181l0.147-0.148c4.011,5.914,8.266,11.661,12.764,17.215
	c0.19,0.233,0.387,0.462,0.575,0.694c1.408,1.726,2.832,3.437,4.285,5.125c0.411,0.478,0.834,0.946,1.249,1.421
	c1.25,1.43,2.506,2.855,3.787,4.258c0.567,0.621,1.147,1.23,1.72,1.845c1.154,1.239,2.31,2.474,3.489,3.689
	c0.682,0.703,1.377,1.393,2.065,2.088c1.099,1.108,2.199,2.215,3.318,3.302c0.766,0.745,1.544,1.477,2.32,2.212
	c1.071,1.015,2.141,2.028,3.23,3.025c0.833,0.763,1.678,1.514,2.521,2.266c1.058,0.943,2.118,1.885,3.191,2.811
	c0.887,0.765,1.783,1.519,2.681,2.271c1.058,0.888,2.119,1.772,3.191,2.643c0.929,0.756,1.868,1.5,2.808,2.242
	c1.068,0.843,2.138,1.68,3.22,2.506c0.963,0.736,1.934,1.462,2.907,2.185c1.084,0.804,2.175,1.602,3.273,2.39
	c0.989,0.71,1.983,1.411,2.983,2.108c1.108,0.772,2.223,1.535,3.343,2.289c1.01,0.68,2.024,1.352,3.043,2.018
	c1.134,0.741,2.275,1.47,3.422,2.192c1.029,0.648,2.058,1.29,3.096,1.923c0.49,0.298,0.97,0.613,1.462,0.908
	c-0.01,0.565-0.012,1.13-0.025,1.694c-0.025,1.004-0.06,2.009-0.097,3.012c-0.052,1.362-0.114,2.723-0.189,4.082
	c-0.056,1.008-0.114,2.016-0.182,3.023c-0.092,1.359-0.199,2.718-0.314,4.075c-0.084,0.998-0.167,1.997-0.264,2.995
	c-0.134,1.375-0.286,2.747-0.444,4.119c-0.111,0.972-0.216,1.946-0.339,2.917c-0.18,1.418-0.383,2.832-0.588,4.246
	c-0.133,0.918-0.255,1.839-0.398,2.756c-0.243,1.556-0.517,3.106-0.79,4.656c-0.136,0.767-0.256,1.538-0.399,2.303
	c-0.424,2.273-0.878,4.541-1.367,6.8c-0.17,0.79-0.365,1.575-0.545,2.364c-0.337,1.485-0.671,2.971-1.036,4.45
	c-0.265,1.07-0.554,2.132-0.832,3.199c-0.309,1.184-0.613,2.369-0.94,3.548c-0.323,1.165-0.667,2.322-1.008,3.481
	c-0.312,1.063-0.622,2.127-0.95,3.185c-0.378,1.227-0.775,2.448-1.173,3.668c-0.318,0.969-0.634,1.938-0.962,2.902
	c-0.438,1.285-0.89,2.565-1.349,3.842c-0.312,0.87-0.629,1.74-0.952,2.606c-0.506,1.355-1.023,2.707-1.551,4.053
	c-0.293,0.745-0.593,1.488-0.894,2.23c-0.589,1.453-1.187,2.902-1.804,4.343c-0.242,0.568-0.494,1.132-0.741,1.697
	c-0.702,1.603-1.412,3.202-2.149,4.788c-0.128,0.276-0.262,0.549-0.391,0.825c-0.851,1.812-1.715,3.615-2.612,5.406
	c-0.258-0.074-0.513-0.151-0.77-0.226c-1.301-0.376-2.598-0.758-3.888-1.155c-0.304-0.093-0.606-0.193-0.909-0.288
	c-1.29-0.403-2.578-0.81-3.858-1.233c-0.298-0.099-0.593-0.203-0.891-0.303c-1.281-0.429-2.559-0.862-3.829-1.312
	c-0.279-0.098-0.556-0.203-0.833-0.302c-1.286-0.461-2.571-0.925-3.846-1.405c-0.223-0.084-0.442-0.173-0.665-0.259
	c-1.326-0.504-2.647-1.013-3.959-1.54c-0.124-0.05-0.245-0.102-0.369-0.152c-5.478-2.205-10.843-4.608-16.097-7.184
	c-0.486-0.238-0.976-0.469-1.46-0.711c-0.763-0.38-1.517-0.775-2.274-1.164c-0.71-0.364-1.424-0.722-2.131-1.093
	c-0.673-0.354-1.337-0.719-2.008-1.078c-0.781-0.42-1.564-0.834-2.339-1.262c-0.619-0.341-1.229-0.693-1.844-1.039
	c-0.819-0.461-1.638-0.918-2.45-1.388c-0.578-0.335-1.149-0.679-1.724-1.017c-0.838-0.494-1.677-0.986-2.508-1.489
	c-0.554-0.336-1.1-0.681-1.649-1.02c-0.844-0.521-1.688-1.04-2.524-1.57c-0.531-0.337-1.054-0.681-1.582-1.022
	c-0.847-0.547-1.694-1.093-2.533-1.648c-0.511-0.34-1.017-0.687-1.526-1.03c-0.843-0.569-1.687-1.138-2.523-1.717
	c-0.495-0.344-0.987-0.695-1.48-1.043c-0.84-0.592-1.68-1.185-2.513-1.787c-0.477-0.345-0.947-0.696-1.421-1.044
	c-0.838-0.617-1.675-1.234-2.505-1.86c-0.462-0.349-0.918-0.702-1.377-1.054c-0.832-0.638-1.664-1.278-2.486-1.926
	c-0.447-0.352-0.89-0.709-1.334-1.064c-0.825-0.659-1.648-1.322-2.465-1.991c-0.433-0.355-0.861-0.715-1.29-1.073
	c-0.818-0.681-1.633-1.364-2.442-2.056c-0.419-0.358-0.835-0.721-1.252-1.082c-0.807-0.701-1.612-1.404-2.409-2.115
	c-0.409-0.364-0.816-0.733-1.222-1.101c-0.795-0.72-1.589-1.443-2.376-2.172c-0.396-0.367-0.788-0.737-1.181-1.108
	c-0.786-0.74-1.57-1.483-2.346-2.234c-0.383-0.371-0.766-0.745-1.147-1.119c-0.775-0.759-1.545-1.522-2.31-2.291
	c-0.371-0.374-0.741-0.751-1.111-1.127c-0.766-0.781-1.527-1.565-2.281-2.356c-0.357-0.374-0.712-0.75-1.067-1.125
	c-0.755-0.801-1.504-1.608-2.249-2.419c-0.346-0.376-0.69-0.754-1.033-1.133c-0.743-0.822-1.481-1.647-2.214-2.478
	c-0.332-0.378-0.663-0.757-0.993-1.136c-0.731-0.841-1.457-1.687-2.176-2.538c-0.321-0.379-0.642-0.76-0.96-1.141
	c-0.719-0.861-1.43-1.728-2.136-2.597c-0.309-0.38-0.617-0.761-0.923-1.142c-0.706-0.882-1.405-1.768-2.099-2.66
	c-0.295-0.379-0.59-0.76-0.884-1.14c-0.696-0.903-1.381-1.812-2.062-2.724c-0.282-0.378-0.566-0.756-0.845-1.135
	c-0.684-0.925-1.358-1.857-2.028-2.793c-0.268-0.374-0.536-0.748-0.801-1.123c-0.67-0.946-1.331-1.9-1.986-2.857
	c-0.257-0.373-0.514-0.745-0.768-1.12c-0.658-0.971-1.306-1.948-1.949-2.928c-0.24-0.366-0.484-0.731-0.721-1.099
	c-0.648-0.997-1.284-2.001-1.917-3.009c-0.225-0.358-0.451-0.714-0.675-1.074c-0.637-1.027-1.263-2.059-1.884-3.095
	c-0.208-0.348-0.419-0.693-0.626-1.041c-0.627-1.058-1.244-2.123-1.854-3.191c-0.191-0.333-0.383-0.662-0.572-0.996
	c-0.618-1.093-1.224-2.193-1.827-3.296c-0.172-0.315-0.348-0.628-0.518-0.944c-0.613-1.136-1.213-2.279-1.809-3.426
	c-0.149-0.287-0.302-0.571-0.449-0.859c-0.61-1.186-1.205-2.379-1.797-3.575c-0.126-0.255-0.255-0.506-0.379-0.762
	c-0.61-1.246-1.204-2.499-1.793-3.755c-0.098-0.21-0.199-0.418-0.297-0.628c-0.618-1.333-1.223-2.674-1.818-4.02
	c-0.061-0.135-0.123-0.27-0.183-0.404c-0.634-1.443-1.254-2.893-1.861-4.35c-0.017-0.042-0.036-0.084-0.054-0.127
	c-3.771-9.068-6.998-18.399-9.647-27.949c-0.001-0.003-0.002-0.007-0.003-0.011c-0.435-1.566-0.853-3.14-1.256-4.718
	c-0.063-0.241-0.119-0.486-0.18-0.728c-0.339-1.342-0.671-2.686-0.986-4.036c-0.088-0.378-0.169-0.759-0.257-1.138
	c-0.278-1.218-0.554-2.437-0.814-3.662c-0.099-0.467-0.191-0.937-0.286-1.405c-0.235-1.139-0.468-2.278-0.686-3.422
	c-0.104-0.541-0.198-1.083-0.297-1.626c-0.197-1.076-0.395-2.152-0.577-3.232c-0.101-0.595-0.193-1.194-0.289-1.792
	c-0.167-1.032-0.334-2.062-0.488-3.097c-0.095-0.638-0.181-1.28-0.271-1.92c-0.14-0.996-0.279-1.993-0.406-2.995
	c-0.086-0.676-0.163-1.352-0.243-2.03c-0.115-0.97-0.229-1.941-0.334-2.913c-0.075-0.708-0.142-1.418-0.21-2.127
	c-0.092-0.944-0.185-1.889-0.266-2.836c-0.063-0.738-0.117-1.476-0.173-2.215c-0.07-0.925-0.141-1.851-0.2-2.78
	c-0.05-0.759-0.089-1.52-0.132-2.28c-0.05-0.911-0.099-1.822-0.14-2.735c-0.033-0.781-0.06-1.562-0.086-2.344
	c-0.03-0.896-0.06-1.792-0.08-2.689c-0.018-0.801-0.028-1.606-0.04-2.409c-0.007-0.564-0.011-1.129-0.014-1.694
	C67.425,101.743,93.507,74.503,124.53,54.266z M426.257,426.255c-38.809,38.806-88.529,62.733-142.242,68.914
	c0.292-0.215,0.579-0.437,0.87-0.653c0.911-0.678,1.822-1.355,2.723-2.043c0.376-0.287,0.749-0.58,1.123-0.869
	c0.947-0.731,1.893-1.462,2.827-2.205c0.076-0.061,0.15-0.123,0.227-0.184c2.336-1.861,4.633-3.759,6.892-5.692
	c0.07-0.06,0.143-0.119,0.212-0.179c0.842-0.722,1.672-1.456,2.503-2.187c0.423-0.372,0.849-0.742,1.269-1.116
	c0.76-0.678,1.509-1.363,2.26-2.05c0.482-0.439,0.963-0.879,1.441-1.321c0.719-0.668,1.43-1.341,2.141-2.016
	c0.492-0.469,0.985-0.938,1.474-1.41c0.694-0.671,1.385-1.345,2.07-2.023c0.491-0.486,0.981-0.974,1.468-1.464
	c0.676-0.679,1.349-1.359,2.017-2.045c0.482-0.494,0.957-0.992,1.434-1.49c0.664-0.694,1.33-1.387,1.985-2.087
	c0.454-0.486,0.903-0.977,1.353-1.466c0.667-0.724,1.339-1.448,1.998-2.179c0.335-0.371,0.661-0.749,0.994-1.123
	c1.457-1.635,2.89-3.288,4.3-4.958c0.31-0.367,0.626-0.73,0.934-1.1c0.626-0.75,1.242-1.508,1.858-2.265
	c0.422-0.517,0.848-1.033,1.266-1.554c0.591-0.735,1.173-1.478,1.754-2.219c0.432-0.551,0.864-1.1,1.29-1.653
	c0.569-0.739,1.133-1.481,1.694-2.225c0.424-0.562,0.847-1.125,1.266-1.691c0.556-0.749,1.107-1.5,1.653-2.254
	c0.411-0.567,0.818-1.135,1.223-1.705c0.544-0.764,1.085-1.529,1.622-2.298c0.39-0.56,0.773-1.123,1.158-1.686
	c0.54-0.789,1.079-1.577,1.61-2.373c0.35-0.523,0.692-1.051,1.037-1.576c0.554-0.843,1.11-1.684,1.652-2.533
	c0.196-0.306,0.385-0.616,0.58-0.923c1.307-2.06,2.584-4.138,3.829-6.234c0.164-0.276,0.333-0.549,0.496-0.826
	c0.53-0.9,1.047-1.806,1.566-2.711c0.29-0.507,0.584-1.011,0.871-1.521c0.49-0.869,0.971-1.745,1.452-2.62
	c0.301-0.549,0.605-1.098,0.902-1.648c0.468-0.866,0.927-1.737,1.385-2.608c0.295-0.563,0.588-1.125,0.88-1.69
	c0.452-0.877,0.9-1.757,1.341-2.64c0.278-0.556,0.554-1.114,0.828-1.672c0.442-0.9,0.882-1.8,1.314-2.704
	c0.255-0.534,0.503-1.069,0.754-1.604c0.441-0.938,0.88-1.878,1.309-2.821c0.206-0.454,0.406-0.913,0.611-1.37
	c0.46-1.03,0.921-2.059,1.367-3.095c0.008-0.017,0.015-0.034,0.021-0.051c1.194-2.768,2.337-5.558,3.432-8.367
	c0.016-0.04,0.032-0.079,0.048-0.119c0.418-1.073,0.823-2.153,1.225-3.232c0.164-0.441,0.334-0.881,0.496-1.323
	c0.368-1.003,0.726-2.012,1.081-3.02c0.185-0.52,0.37-1.04,0.551-1.562c0.34-0.983,0.672-1.968,0.999-2.955
	c0.183-0.547,0.363-1.096,0.542-1.643c0.32-0.985,0.635-1.971,0.943-2.96c0.169-0.544,0.336-1.089,0.502-1.633
	c0.305-1.004,0.609-2.01,0.902-3.018c0.149-0.516,0.295-1.034,0.441-1.549c0.297-1.045,0.593-2.09,0.876-3.14
	c0.115-0.426,0.224-0.853,0.337-1.279c1.074-4.049,2.054-8.126,2.93-12.229c0.015-0.071,0.031-0.142,0.047-0.213
	c0.236-1.116,0.459-2.235,0.681-3.353c0.096-0.484,0.196-0.966,0.289-1.451c0.199-1.035,0.387-2.072,0.572-3.11
	c0.103-0.569,0.206-1.138,0.305-1.709c0.173-1.003,0.338-2.008,0.498-3.014c0.098-0.61,0.194-1.218,0.288-1.828
	c0.15-0.987,0.296-1.975,0.436-2.964c0.088-0.629,0.173-1.258,0.258-1.888c0.131-0.984,0.26-1.969,0.379-2.956
	c0.077-0.629,0.147-1.26,0.219-1.89c0.113-0.992,0.226-1.984,0.328-2.98c0.062-0.606,0.115-1.212,0.172-1.819
	c0.098-1.026,0.198-2.05,0.282-3.077c0.032-0.398,0.059-0.796,0.089-1.195c0.166-2.131,0.304-4.266,0.417-6.404
	c0.033-0.638,0.073-1.275,0.103-1.913c0.04-0.892,0.067-1.785,0.098-2.678c0.026-0.771,0.057-1.543,0.076-2.315
	c0.022-0.853,0.033-1.708,0.048-2.562c0.012-0.818,0.024-1.635,0.029-2.453c0.005-0.828,0.004-1.657,0-2.485
	c-0.003-0.853-0.009-1.705-0.021-2.558c-0.011-0.802-0.025-1.605-0.045-2.408c-0.02-0.896-0.048-1.791-0.077-2.688
	c-0.025-0.761-0.052-1.522-0.084-2.284c-0.042-0.975-0.093-1.951-0.145-2.927c-0.038-0.686-0.071-1.372-0.113-2.056
	c-0.073-1.162-0.158-2.323-0.247-3.486c-0.039-0.502-0.07-1.003-0.111-1.505c-0.278-3.4-0.627-6.803-1.043-10.206
	c-0.041-0.332-0.087-0.664-0.13-0.996c-0.173-1.374-0.356-2.745-0.552-4.119c-0.061-0.426-0.127-0.851-0.191-1.277
	c-0.191-1.293-0.391-2.587-0.603-3.88c-0.071-0.434-0.145-0.868-0.218-1.303c-0.222-1.31-0.452-2.618-0.695-3.927
	c-0.072-0.392-0.145-0.782-0.22-1.174c-0.265-1.397-0.543-2.793-0.831-4.19c-0.061-0.291-0.12-0.582-0.182-0.873
	c-0.337-1.6-0.69-3.197-1.058-4.796c-0.018-0.082-0.035-0.164-0.056-0.247c-0.08-0.348-0.153-0.697-0.235-1.046
	c0.473,0.003,0.946,0.006,1.418,0.012c0.605,0.007,1.208,0.012,1.813,0.023c0.691,0.013,1.381,0.032,2.071,0.052
	c0.602,0.016,1.203,0.03,1.803,0.052c0.696,0.024,1.39,0.056,2.086,0.086c0.595,0.025,1.192,0.05,1.787,0.08
	c0.696,0.036,1.391,0.079,2.086,0.121c0.595,0.036,1.191,0.067,1.785,0.108c0.693,0.046,1.384,0.101,2.077,0.153
	c0.595,0.045,1.191,0.086,1.786,0.136c0.693,0.058,1.383,0.124,2.075,0.188c0.593,0.055,1.188,0.104,1.78,0.163
	c0.682,0.068,1.362,0.145,2.043,0.218c1.399,0.151,2.796,0.313,4.191,0.489c0.448,0.057,0.899,0.108,1.346,0.166
	c0.759,0.099,1.515,0.209,2.271,0.316c0.512,0.072,1.026,0.14,1.537,0.215c0.757,0.112,1.512,0.233,2.266,0.352
	c0.509,0.08,1.018,0.156,1.527,0.239c0.766,0.126,1.531,0.26,2.296,0.393c0.493,0.085,0.987,0.168,1.48,0.257
	c0.781,0.141,1.56,0.29,2.34,0.438c0.473,0.09,0.945,0.178,1.416,0.27c0.796,0.156,1.592,0.321,2.388,0.485
	c0.45,0.093,0.903,0.186,1.353,0.281c0.811,0.172,1.619,0.352,2.428,0.533c0.432,0.096,0.865,0.192,1.296,0.291
	c0.827,0.19,1.65,0.385,2.475,0.584c0.407,0.098,0.816,0.195,1.222,0.295c0.847,0.209,1.692,0.423,2.537,0.64
	c0.378,0.097,0.758,0.194,1.136,0.294c0.869,0.228,1.737,0.462,2.603,0.7c0.348,0.095,0.697,0.192,1.044,0.288
	c0.897,0.251,1.794,0.507,2.688,0.768c0.306,0.089,0.613,0.18,0.919,0.27c0.931,0.276,1.863,0.558,2.792,0.845
	c0.261,0.08,0.522,0.162,0.782,0.243c0.973,0.304,1.944,0.614,2.912,0.931c0.204,0.066,0.408,0.134,0.613,0.201
	c1.022,0.337,2.041,0.68,3.059,1.031c0.14,0.049,0.279,0.097,0.42,0.146c1.081,0.375,2.163,0.757,3.239,1.148
	c0.051,0.018,0.102,0.038,0.152,0.056c11.763,4.277,23.208,9.47,34.215,15.549C495.623,323.08,470.692,381.823,426.257,426.255z"/>
</svg>