<?xml version="1.0" encoding="iso-8859-1"?>
<!-- Uploaded to: SVG Repo, www.svgrepo.com, Generator: SVG Repo Mixer Tools -->
<!DOCTYPE svg PUBLIC "-//W3C//DTD SVG 1.1//EN" "http://www.w3.org/Graphics/SVG/1.1/DTD/svg11.dtd">
<svg height="800px" width="800px" version="1.1" id="Capa_1" xmlns="http://www.w3.org/2000/svg" xmlns:xlink="http://www.w3.org/1999/xlink" 
	 viewBox="0 0 512 512" xml:space="preserve">
<g>
	<path style="fill:#6EBF5D;" d="M304,409.351c0,13.266-21.492,24-48,24s-48-10.734-48-24c0-10.441,13.371-19.305,32-22.604v-50.279
		c-68.379,3.815-136,31.582-136,71.533c0,43.07,78.594,72,152,72c73.406,0,152-28.93,152-72c0-29.254-40.641-56.98-98.836-67.426
		c-8.547-1.536-14.269-9.598-12.979-18.134c-7.845-0.973-15.919-1.667-24.185-2.058v66.364C290.629,390.046,304,398.91,304,409.351z
		"/>
	<path style="fill:#003B54;" d="M314.82,309.074c-8.672-1.535-17.016,4.227-18.578,12.922c-1.563,8.699,4.227,17.016,12.922,18.578
		C367.359,351.02,408,378.746,408,408c0,43.07-78.594,72-152,72c-73.406,0-152-28.93-152-72c0-39.951,67.621-67.718,136-71.533
		v50.279c-18.629,3.299-32,12.164-32,22.604c0,13.266,21.492,24,48,24s48-10.734,48-24c0-10.441-13.371-19.305-32-22.604V204.073
		c3.736-1.043,7.525-2.307,11.414-3.913l106.555-47.527c28.969-11.957,33.742-29.476,34.016-38.855
		c0.258-9.223-3.367-26.652-30.656-39.789c-0.125-0.059-0.25-0.117-0.383-0.176L281.32,23.664c-3.094-1.49-6.207-2.67-9.32-3.776
		v-3.857V16c0-8.843-7.164-16-16-16s-16,7.157-16,16v16v158.906v113.475C143.172,308.68,72,351.769,72,408
		c0,59.289,79.102,104,184,104s184-44.711,184-104C440,361.559,390.867,322.727,314.82,309.074z M379.625,102.91
		c9.898,4.801,12.305,9.145,12.367,9.945c-0.094,0.898-2.938,5.539-14.641,10.375L272,170.219V54.551L379.625,102.91z"/>
	<path style="fill:#F69348;" d="M379.625,102.91L272,54.551v115.668l105.352-46.988c11.703-4.836,14.547-9.477,14.641-10.375
		C391.93,112.055,389.523,107.711,379.625,102.91z"/>
</g>
</svg>