<?xml version="1.0" encoding="iso-8859-1"?>
<!-- Uploaded to: SVG Repo, www.svgrepo.com, Generator: SVG Repo Mixer Tools -->
<svg height="800px" width="800px" version="1.1" id="Layer_1" xmlns="http://www.w3.org/2000/svg" xmlns:xlink="http://www.w3.org/1999/xlink" 
	 viewBox="0 0 511.98 511.98" xml:space="preserve">
<path style="fill:#E6E9ED;" d="M501.317,143.993H10.657c-5.891,0-10.656,4.781-10.656,10.672v277.322
	c0,5.891,4.765,10.672,10.656,10.672h490.661c5.891,0,10.656-4.781,10.656-10.672V154.665
	C511.973,148.774,507.208,143.993,501.317,143.993z"/>
<g>
	<path style="fill:#434A54;" d="M351.992,207.992h-149.34c-5.891,0-10.656-4.781-10.656-10.672s4.765-10.656,10.656-10.656h149.34
		c5.875,0,10.656,4.766,10.656,10.656S357.867,207.992,351.992,207.992z"/>
	<path style="fill:#434A54;" d="M351.992,250.663h-149.34c-5.891,0-10.656-4.781-10.656-10.672s4.765-10.672,10.656-10.672h149.34
		c5.875,0,10.656,4.781,10.656,10.672S357.867,250.663,351.992,250.663z"/>
</g>
<g>
	<path style="fill:#656D78;" d="M422.163,105.556c4.328,8.297,4.484,17.078,4.484,17.109v21.327h21.327v-21.327
		c0-1.359-0.172-13.547-6.453-26.109c-8.781-17.562-25.421-27.234-46.873-27.234c-21.453,0-38.094,9.672-46.875,27.234
		c-6.28,12.562-6.452,24.75-6.452,26.109v165.324c0,5.891,4.765,10.672,10.671,10.672c5.875,0,10.656-4.781,10.656-10.672V122.666
		c0-0.078,0.188-8.516,4.203-16.562c5.203-10.39,14.297-15.437,27.797-15.437C407.928,90.666,416.928,95.541,422.163,105.556z"/>
	<path style="fill:#656D78;" d="M272.838,105.556c4.328,8.297,4.484,17.078,4.484,17.109v21.327h21.328v-21.327
		c0-1.359-0.172-13.547-6.453-26.109c-8.781-17.562-25.422-27.234-46.874-27.234c-21.453,0-38.093,9.672-46.874,27.234
		c-6.281,12.562-6.453,24.75-6.453,26.109v165.324c0,5.891,4.765,10.672,10.656,10.672s10.672-4.781,10.672-10.672V122.666
		c0-0.078,0.172-8.516,4.203-16.562c5.203-10.39,14.281-15.437,27.796-15.437C258.588,90.666,267.603,95.541,272.838,105.556z"/>
</g>
<path style="fill:#5D9CEC;" d="M10.657,442.659h490.661c5.891,0,10.656-4.781,10.656-10.672V282.599H0.001v149.388
	C0.001,437.878,4.766,442.659,10.657,442.659z"/>
<g>
	<path style="fill:#4A89DC;" d="M341.321,303.989c-1.641,0-3.266-0.374-4.766-1.124l-16.577-8.281l-16.562,8.281
		c-3,1.499-6.531,1.499-9.531,0l-16.562-8.281l-16.562,8.281c-3,1.499-6.546,1.499-9.546,0l-16.562-8.281l-16.562,8.281
		c-3,1.499-6.531,1.499-9.531,0l-16.562-8.281l-16.562,8.281c-3.016,1.499-6.546,1.499-9.546,0l-16.562-8.281l-16.562,8.281
		c-3,1.499-6.546,1.499-9.546,0l-16.562-8.281l-16.562,8.281c-3,1.499-6.531,1.499-9.531,0l-16.562-8.281l-16.562,8.281
		c-2.531,1.265-5.468,1.468-8.156,0.578l-32-10.672c-5.578-1.859-8.593-7.906-6.734-13.484c1.859-5.594,7.906-8.608,13.484-6.75
		l27.812,9.266l17.375-8.688c3-1.5,6.546-1.5,9.546,0l16.562,8.281l16.562-8.281c3-1.5,6.531-1.5,9.546,0L128,281.396l16.562-8.281
		c3-1.5,6.531-1.5,9.531,0l16.562,8.281l16.562-8.281c3-1.5,6.546-1.5,9.546,0l16.562,8.281l16.562-8.281c3-1.5,6.531-1.5,9.531,0
		l16.562,8.281l16.577-8.281c3-1.5,6.531-1.5,9.531,0l16.562,8.281l16.562-8.281c3-1.5,6.546-1.5,9.546,0l16.562,8.281l16.562-8.281
		c3-1.5,6.531-1.5,9.531,0l16.562,8.281l16.562-8.281c3.016-1.5,6.547-1.5,9.546,0l16.562,8.281l16.562-8.281
		c3-1.5,6.531-1.5,9.547,0l17.375,8.688l27.812-9.266c5.578-1.858,11.625,1.156,13.484,6.75c1.875,5.578-1.156,11.625-6.734,13.484
		l-31.999,10.672c-2.688,0.89-5.625,0.687-8.156-0.578l-16.562-8.281l-16.562,8.281c-2.999,1.499-6.53,1.499-9.53,0l-16.562-8.281
		l-16.562,8.281c-3,1.499-6.547,1.499-9.547,0l-16.562-8.281l-16.562,8.281C344.586,303.615,342.946,303.989,341.321,303.989z"/>
	<path style="fill:#4A89DC;" d="M213.308,367.988c-1.594,0-3.219-0.359-4.75-1.125l-16.562-8.28l-16.562,8.28
		c-3.016,1.5-6.546,1.5-9.546,0l-16.562-8.28l-16.562,8.28c-3,1.5-6.546,1.5-9.546,0l-16.562-8.28l-16.562,8.28
		c-3,1.5-6.531,1.5-9.531,0l-16.562-8.28l-16.562,8.28c-2.531,1.266-5.468,1.469-8.156,0.578l-32-10.671
		c-5.578-1.859-8.593-7.906-6.734-13.484c1.859-5.594,7.906-8.609,13.484-6.75l27.812,9.266l17.375-8.688c3-1.5,6.546-1.5,9.546,0
		l16.562,8.281l16.562-8.281c3-1.5,6.531-1.5,9.546,0l16.562,8.281l16.562-8.281c3-1.5,6.531-1.5,9.531,0l16.562,8.281l16.562-8.281
		c3-1.5,6.546-1.5,9.546,0l21.328,10.672c5.266,2.625,7.406,9.031,4.766,14.312C220.995,365.832,217.23,367.988,213.308,367.988z"/>
	<path style="fill:#4A89DC;" d="M287.994,389.315c-3.906,0-7.688-2.156-9.547-5.89c-2.641-5.266-0.5-11.672,4.766-14.312
		l21.344-10.671c3-1.5,6.531-1.5,9.531,0l16.562,8.28l16.562-8.28c3-1.5,6.547-1.5,9.547,0l16.562,8.28l16.562-8.28
		c3-1.5,6.531-1.5,9.531,0l16.562,8.28l16.562-8.28c3.016-1.5,6.547-1.5,9.547,0l16.562,8.28l16.562-8.28c3-1.5,6.531-1.5,9.547,0
		l21.327,10.671c5.266,2.641,7.406,9.047,4.766,14.312c-2.625,5.265-9.031,7.405-14.312,4.765l-16.562-8.28l-16.562,8.28
		c-3,1.5-6.531,1.5-9.531,0l-16.562-8.28l-16.562,8.28c-3.016,1.5-6.547,1.5-9.547,0l-16.562-8.28l-16.562,8.28
		c-3,1.5-6.531,1.5-9.531,0l-16.562-8.28l-16.577,8.28c-3,1.5-6.531,1.5-9.531,0l-16.562-8.28l-16.562,8.28
		C291.228,388.956,289.588,389.315,287.994,389.315z"/>
</g>
</svg>